<svg width="60" height="44" viewBox="0 0 60 44" fill="none" xmlns="http://www.w3.org/2000/svg">
<path d="M49.9179 3.72812C56.4152 13.3089 59.624 24.1158 58.4245 36.557C58.4195 36.6097 58.3921 36.658 58.349 36.6897C53.4287 40.3132 48.6616 42.5122 43.9613 43.9705C43.9247 43.9817 43.8856 43.9811 43.8493 43.9688C43.8131 43.9565 43.7816 43.9332 43.7593 43.902C42.6734 42.3867 41.6867 40.7892 40.8223 39.1116C40.7727 39.0128 40.818 38.8938 40.9201 38.8549C42.4871 38.2627 43.9771 37.553 45.4104 36.7128C45.5233 36.6465 45.5305 36.4842 45.4262 36.4063C45.122 36.1798 44.8207 35.9418 44.5323 35.7038C44.4784 35.6598 44.4058 35.6512 44.3446 35.6807C35.0398 39.9901 24.8468 39.9901 15.432 35.6807C15.3708 35.6533 15.2982 35.6627 15.2457 35.706C14.9581 35.944 14.656 36.1798 14.3547 36.4063C14.2504 36.4842 14.2591 36.6465 14.3727 36.7128C15.8059 37.5372 17.2959 38.2627 18.8608 38.8578C18.9622 38.8967 19.0104 39.0128 18.96 39.1116C18.1143 40.7914 17.1277 42.3889 16.0216 43.9042C15.9735 43.9655 15.8944 43.9936 15.8196 43.9705C11.1416 42.5122 6.3745 40.3132 1.45421 36.6897C1.41322 36.658 1.38374 36.6075 1.37942 36.5549C0.376952 25.7934 2.42 14.8971 9.87811 3.72596C9.89609 3.69638 9.92342 3.67331 9.95506 3.6596C13.6248 1.97048 17.5563 0.727806 21.6654 0.018116C21.7402 0.00657637 21.815 0.0411954 21.8538 0.107548C22.3615 1.00908 22.9418 2.16522 23.3345 3.11003C27.6658 2.44649 32.0647 2.44649 36.4867 3.11003C36.8793 2.18541 37.4395 1.00908 37.9451 0.107548C37.9631 0.0746314 37.991 0.04826 38.0248 0.0321993C38.0587 0.0161386 38.0967 0.0112096 38.1335 0.018116C42.2448 0.729969 46.1763 1.97265 49.8431 3.6596C49.8755 3.67331 49.9021 3.69638 49.9179 3.72812ZM25.5365 24.1894C25.5818 21.008 23.2691 18.3756 20.3659 18.3756C17.4865 18.3756 15.1961 20.985 15.1961 24.1894C15.1961 27.3931 17.5318 30.0025 20.3659 30.0025C23.246 30.0025 25.5365 27.3931 25.5365 24.1894ZM44.6524 24.1894C44.6977 21.008 42.385 18.3756 39.4826 18.3756C36.6025 18.3756 34.312 20.985 34.312 24.1894C34.312 27.3931 36.6478 30.0025 39.4826 30.0025C42.385 30.0025 44.6524 27.3931 44.6524 24.1894Z" fill="#5865F2"/>
</svg>
