<svg width="44" height="44" viewBox="0 0 44 44" fill="none" xmlns="http://www.w3.org/2000/svg">
<g clip-path="url(#clip0_2454_13064)">
<path d="M22 44.0001C34.1503 44.0001 44 34.1503 44 22.0001C44 9.8498 34.1503 6.10352e-05 22 6.10352e-05C9.84974 6.10352e-05 0 9.8498 0 22.0001C0 34.1503 9.84974 44.0001 22 44.0001Z" fill="#3C5A9A"/>
<path d="M29.1535 6.75287H24.28C21.3878 6.75287 18.171 7.96926 18.171 12.1615C18.1851 13.6222 18.171 15.0212 18.171 16.5956H14.8252V21.9198H18.2745V37.2471H24.6128V21.8186H28.7964L29.1749 16.5807H24.5036C24.5036 16.5807 24.5141 14.2506 24.5036 13.574C24.5036 11.9173 26.2275 12.0122 26.3312 12.0122C27.1515 12.0122 28.7465 12.0146 29.1559 12.0122V6.75287H29.1535Z" fill="white"/>
</g>
<defs>
<clipPath id="clip0_2454_13064">
<rect width="44" height="44" fill="white"/>
</clipPath>
</defs>
</svg>
