<svg width="46" height="44" viewBox="0 0 46 44" fill="none" xmlns="http://www.w3.org/2000/svg">
<path d="M22.9111 0C10.2593 0 0 10.0858 0 22.5277C0 32.4812 6.5647 40.9254 15.668 43.9043C16.813 44.1128 17.2335 43.4156 17.2335 42.8205C17.2335 42.2834 17.2121 40.5086 17.2024 38.6263C10.8283 39.989 9.48337 35.9683 9.48337 35.9683C8.44118 33.3644 6.93953 32.6721 6.93953 32.6721C4.86091 31.2739 7.09622 31.3025 7.09622 31.3025C9.39694 31.4615 10.6084 33.6241 10.6084 33.6241C12.6518 37.0681 15.9681 36.0724 17.2755 35.4969C17.4811 34.0407 18.0749 33.0471 18.7301 32.4845C13.6413 31.9147 8.29168 29.9831 8.29168 21.3512C8.29168 18.8918 9.1867 16.882 10.6524 15.3044C10.4145 14.7369 9.63035 12.4457 10.8743 9.3427C10.8743 9.3427 12.7982 8.73721 17.1765 11.6519C19.0039 11.1526 20.964 10.9024 22.9111 10.894C24.8581 10.9024 26.8196 11.1526 28.6506 11.6519C33.0237 8.73721 34.9449 9.3427 34.9449 9.3427C36.1919 12.4457 35.4074 14.7369 35.1695 15.3044C36.6385 16.882 37.5274 18.8916 37.5274 21.3512C37.5274 30.0036 32.1677 31.9089 27.066 32.4665C27.8877 33.1656 28.6199 34.5367 28.6199 36.6383C28.6199 39.6525 28.5933 42.0785 28.5933 42.8205C28.5933 43.42 29.0057 44.1225 30.1672 43.9013C39.2655 40.9191 45.8219 32.4778 45.8219 22.5277C45.8219 10.0858 35.5641 0 22.9111 0Z" fill="#161614"/>
<path d="M8.58142 32.0912C8.5311 32.2031 8.35178 32.2366 8.1888 32.16C8.02259 32.0865 7.92915 31.9338 7.98306 31.8214C8.03247 31.7062 8.2118 31.6741 8.37765 31.7515C8.54422 31.8248 8.6391 31.9789 8.58142 32.0912ZM9.70842 33.0799C9.59917 33.1796 9.38552 33.1333 9.24051 32.9759C9.09065 32.8188 9.06262 32.6089 9.17349 32.5077C9.28615 32.4082 9.49333 32.4547 9.64355 32.6119C9.79341 32.7708 9.82252 32.9794 9.70824 33.0801L9.70842 33.0799ZM10.4816 34.345C10.3411 34.4409 10.1115 34.351 9.96968 34.1506C9.82935 33.9504 9.82935 33.7102 9.97274 33.6139C10.115 33.5176 10.3411 33.6042 10.4848 33.8029C10.625 34.0066 10.625 34.2469 10.4814 34.3452L10.4816 34.345ZM11.789 35.8102C11.6634 35.9462 11.396 35.9098 11.2002 35.724C11 35.5423 10.9441 35.2846 11.0701 35.1483C11.1971 35.0119 11.4661 35.0503 11.6634 35.2346C11.8623 35.4158 11.9231 35.6756 11.7892 35.8102H11.789ZM13.4788 36.3049C13.4236 36.4812 13.166 36.5614 12.9065 36.4865C12.6474 36.4093 12.4778 36.2026 12.53 36.0243C12.584 35.8468 12.8427 35.7632 13.1042 35.8434C13.3629 35.9203 13.5329 36.1254 13.479 36.3049H13.4788ZM15.4022 36.5146C15.4086 36.7005 15.1885 36.8546 14.9161 36.8579C14.6421 36.8637 14.4205 36.7134 14.4177 36.5307C14.4177 36.3431 14.6328 36.1904 14.9066 36.186C15.179 36.1807 15.4022 36.33 15.4022 36.5146ZM17.2914 36.4434C17.3241 36.6247 17.1347 36.8109 16.8643 36.8604C16.5984 36.9081 16.3522 36.7962 16.3182 36.6166C16.2852 36.4307 16.4781 36.2446 16.7435 36.1964C17.0145 36.1501 17.2569 36.2591 17.2914 36.4434Z" fill="#161614"/>
</svg>
