<svg width="44" height="44" viewBox="0 0 44 44" fill="none" xmlns="http://www.w3.org/2000/svg">
<path d="M22 44C34.1503 44 44 34.1503 44 22C44 9.84974 34.1503 0 22 0C9.84974 0 0 9.84974 0 22C0 34.1503 9.84974 44 22 44Z" fill="#FF4500"/>
<path d="M36.6743 22C36.6787 22.3014 36.6413 22.6022 36.5621 22.8932C36.4829 23.1841 36.363 23.463 36.2057 23.7204C36.049 23.9778 35.8565 24.2121 35.6343 24.4161C35.4121 24.6202 35.1624 24.7918 34.8923 24.926C34.8984 25.0063 34.9033 25.0871 34.9061 25.168C34.9127 25.3292 34.9127 25.4907 34.9061 25.652C34.9033 25.7328 34.8984 25.8137 34.8923 25.894C34.8923 30.822 29.1503 34.826 22.0663 34.826C14.9823 34.826 9.24033 30.822 9.24033 25.894C9.23428 25.8137 9.22933 25.7328 9.22658 25.652C9.21996 25.4907 9.21996 25.3292 9.22658 25.168C9.22933 25.0871 9.23428 25.0063 9.24033 24.926C8.81724 24.7315 8.44147 24.4474 8.139 24.0934C7.83654 23.7394 7.61461 23.3238 7.48858 22.8756C7.36276 22.4271 7.33595 21.9567 7.41003 21.4968C7.48411 21.037 7.65729 20.5987 7.91758 20.2125C8.17764 19.8263 8.51861 19.5013 8.91684 19.2601C9.31506 19.0188 9.76101 18.8671 10.2237 18.8155C10.6865 18.7636 11.155 18.813 11.5968 18.9602C12.0386 19.1074 12.4431 19.3489 12.7823 19.668C13.412 19.2412 14.0717 18.8605 14.7563 18.5289C15.441 18.1978 16.1489 17.9162 16.8743 17.6874C17.5998 17.4586 18.3412 17.2832 19.0919 17.1616C19.8427 17.0401 20.6017 16.9735 21.3623 16.962L22.9903 9.32797C23.0085 9.23942 23.0442 9.15582 23.0954 9.08102C23.146 9.00677 23.2114 8.94297 23.2868 8.89402C23.3627 8.84507 23.4474 8.81152 23.5365 8.79502C23.625 8.77907 23.7163 8.78072 23.8043 8.79997L29.1943 9.87797C29.7383 8.94352 30.8801 8.54312 31.8882 8.93252C32.8964 9.32192 33.4728 10.3862 33.2473 11.4433C33.0223 12.5004 32.062 13.2374 30.9829 13.1818C29.9033 13.1263 29.0238 12.2947 28.9083 11.22L24.2003 10.23L22.7703 17.094C23.5216 17.1099 24.2713 17.1803 25.0127 17.3041C26.4974 17.5516 27.9386 18.0121 29.2917 18.6714C29.9675 19.0003 30.6187 19.3774 31.2403 19.8C31.6873 19.3709 32.2489 19.0803 32.8573 18.9634C33.4658 18.8461 34.0952 18.9074 34.6696 19.14C35.244 19.3724 35.7389 19.7661 36.0946 20.2735C36.4504 20.781 36.6518 21.3806 36.6743 22ZM14.8415 25.042C14.9526 25.3088 15.1143 25.5513 15.3189 25.7554C15.523 25.96 15.7655 26.1217 16.0323 26.2328C16.2993 26.3432 16.5854 26.4 16.8743 26.4C17.7642 26.4 18.5661 25.8637 18.9071 25.042C19.2476 24.2198 19.0589 23.2738 18.4297 22.6446C17.8005 22.0154 16.8545 21.8267 16.0323 22.1672C15.2106 22.5082 14.6743 23.3101 14.6743 24.2C14.6743 24.4887 14.731 24.7747 14.8415 25.042ZM27.442 30.3231C27.5548 30.2131 27.6191 30.063 27.6213 29.9057C27.6235 29.7478 27.5625 29.596 27.4525 29.4833C27.3425 29.3705 27.1923 29.3062 27.035 29.304C26.8772 29.3018 26.7254 29.3628 26.5983 29.458C26.2675 29.6952 25.9172 29.9041 25.5511 30.0822C25.185 30.2605 24.8046 30.4075 24.4137 30.5217C24.0232 30.6355 23.6234 30.7164 23.2191 30.7631C22.8143 30.8099 22.4068 30.822 22.0003 30.8C21.5944 30.8181 21.1874 30.8016 20.7843 30.751C20.381 30.7009 19.9828 30.6163 19.5941 30.498C19.2047 30.3803 18.8268 30.2296 18.4633 30.0481C18.0997 29.8666 17.7521 29.6543 17.4243 29.414C17.3105 29.3205 17.1658 29.2726 17.0184 29.2798C16.871 29.2869 16.7319 29.3491 16.6274 29.453C16.5234 29.5575 16.4613 29.6967 16.4541 29.8441C16.447 29.9915 16.4948 30.1361 16.5883 30.25C16.975 30.5415 17.3858 30.7989 17.8165 31.02C18.2471 31.2411 18.6965 31.4242 19.1585 31.5683C19.6205 31.7124 20.094 31.8164 20.5742 31.8796C21.0543 31.9423 21.5389 31.9638 22.0223 31.944C22.5058 31.9638 22.9903 31.9423 23.4705 31.8796C24.4322 31.7531 25.365 31.4623 26.2282 31.02C26.6588 30.7989 27.0697 30.5415 27.4563 30.25L27.442 30.3231ZM27.0383 26.576C27.3364 26.5793 27.6323 26.5215 27.9079 26.4071C28.1834 26.2922 28.4326 26.1228 28.6405 25.9088C28.8484 25.6949 29.0101 25.4408 29.1168 25.1619C29.2236 24.8834 29.2724 24.586 29.2603 24.288C29.2603 23.3981 28.7241 22.5962 27.9024 22.2552C27.0801 21.9147 26.1341 22.1034 25.5049 22.7326C24.8757 23.3618 24.6871 24.3078 25.0275 25.13C25.3685 25.9517 26.1704 26.488 27.0603 26.488L27.0383 26.576Z" fill="white"/>
</svg>
