<svg width="44" height="44" viewBox="0 0 44 44" fill="none" xmlns="http://www.w3.org/2000/svg">
<path d="M22 44C34.1502 44 44 34.1502 44 22C44 9.84975 34.1502 0 22 0C9.84975 0 0 9.84975 0 22C0 34.1502 9.84975 44 22 44Z" fill="#34AADF"/>
<path d="M9.15568 21.8092C9.15568 21.8092 20.1557 17.2948 23.9707 15.7052C25.4331 15.0694 30.3926 13.0346 30.3926 13.0346C30.3926 13.0346 32.6817 12.1445 32.4909 14.3063C32.4273 15.1965 31.9186 18.3121 31.41 21.682C30.647 26.4508 29.8204 31.6647 29.8204 31.6647C29.8204 31.6647 29.6932 33.1271 28.6123 33.3815C27.5314 33.6358 25.751 32.4913 25.4331 32.2369C25.1787 32.0462 20.6643 29.1849 19.0112 27.7861C18.566 27.4046 18.0574 26.6416 19.0747 25.7514C21.3637 23.6531 24.0978 21.0462 25.751 19.3931C26.514 18.63 27.277 16.8497 24.0978 19.0115C19.5834 22.1271 15.1326 25.052 15.1326 25.052C15.1326 25.052 14.1152 25.6878 12.2077 25.1155C10.3001 24.5433 8.07469 23.7803 8.07469 23.7803C8.07469 23.7803 6.54877 22.8266 9.15568 21.8092Z" fill="white"/>
</svg>
