<svg width="66" height="44" viewBox="0 0 66 44" fill="none" xmlns="http://www.w3.org/2000/svg">
<path d="M25.2172 44C43.6882 44 53.7894 28.8495 53.7894 15.7114C53.7894 15.2811 53.7805 14.8528 53.7609 14.4263C55.7264 13.0183 57.4226 11.2749 58.7701 9.27788C56.9707 10.0699 55.0345 10.6029 53.0032 10.8433C55.0766 9.61244 56.6682 7.66521 57.4192 5.34412C55.4479 6.5019 53.2914 7.31808 51.0425 7.75746C49.21 5.8249 46.6012 4.61621 43.7124 4.61621C38.1668 4.61621 33.6697 9.06875 33.6697 14.5572C33.6697 15.3375 33.758 16.0962 33.9303 16.8242C25.5841 16.4084 18.1833 12.4521 13.2303 6.43633C12.3383 7.95363 11.869 9.67807 11.8706 11.4335C11.8706 14.883 13.6434 17.928 16.3394 19.7096C14.7447 19.6613 13.185 19.2349 11.7914 18.466C11.7899 18.5078 11.7899 18.5484 11.7899 18.593C11.7899 23.408 15.2513 27.4282 19.8463 28.3391C18.9833 28.5718 18.0928 28.6895 17.1983 28.689C16.5524 28.689 15.9229 28.6261 15.311 28.5098C16.5895 32.4602 20.2966 35.3349 24.6919 35.4152C21.2549 38.0824 16.9253 39.671 12.2196 39.671C11.4191 39.6717 10.6192 39.6257 9.82422 39.5333C14.2685 42.3537 19.5457 43.9993 25.2177 43.9993" fill="#1DA1F2"/>
</svg>
