<svg width="50" height="52" viewBox="0 0 50 52" fill="none" xmlns="http://www.w3.org/2000/svg">
<path d="M12.7907 44.1529L13.6068 44.5708C16.9346 46.5983 20.739 47.658 24.6109 47.636C36.5304 47.6081 46.3239 37.5531 46.3239 25.3441C46.3239 19.4437 44.036 13.7774 39.9676 9.60046C35.9047 5.38034 30.3537 3.00208 24.5687 3.00208C12.7036 3.00208 2.94141 13.0028 2.94141 25.1546C2.94141 25.2508 2.94141 25.3455 2.94277 25.4416C2.97851 29.5732 4.10666 33.6176 6.20729 37.1448L6.75134 37.9808L4.57503 46.2009L12.7907 44.1529Z" fill="#00E676"/>
<path d="M42.7967 7.51811C38.1603 2.6987 31.7999 -0.00504502 25.1769 0.0267668H25.1347C11.4951 0.0268103 0.270995 11.4621 0.270995 25.3584C0.270995 25.4236 0.27236 25.4874 0.27236 25.5526C0.323736 29.9708 1.44636 34.3075 3.54034 38.1768L0 51.3558L13.1944 47.8876C16.8394 49.9264 20.9372 50.9774 25.0952 50.9397C38.7853 50.8634 50.008 39.3629 49.9998 25.4139C50.0325 18.712 47.4386 12.2667 42.7967 7.51811ZM25.1769 46.6391C21.4911 46.6587 17.8703 45.6513 14.7058 43.7259L13.8888 43.3097L6.03211 45.3906L8.07457 37.4831L7.52994 36.6508C5.50679 33.3226 4.43494 29.4854 4.43489 25.5706C4.43489 14.0258 13.7595 4.52571 25.0912 4.52571C36.4228 4.52571 45.7474 14.0258 45.7474 25.5706C45.7474 32.84 42.0505 39.6126 35.9884 43.4484C32.7823 45.5408 29.0526 46.6485 25.245 46.6391H25.1769ZM37.214 31.2404L35.7161 30.5468C35.7161 30.5468 33.5375 29.5757 32.1758 28.8821C32.0397 28.8821 31.9035 28.7434 31.7673 28.7434C31.4316 28.7518 31.1036 28.8473 30.8142 29.0208C30.5241 29.1942 30.678 29.1595 28.7717 31.3791C28.6424 31.6386 28.3768 31.8009 28.0909 31.7953H27.9547C27.75 31.7604 27.5603 31.6638 27.4101 31.5179L26.7292 31.2404C25.2684 30.6103 23.9308 29.7175 22.7804 28.6046C22.5081 28.3271 22.0996 28.0497 21.8272 27.7722C20.8192 26.7884 19.9487 25.6681 19.2401 24.4428L19.1039 24.1654C18.9857 23.9958 18.8938 23.8086 18.8316 23.6104C18.796 23.3701 18.8442 23.1247 18.9678 22.9168C19.0917 22.7087 19.5125 22.2231 19.9209 21.807C20.3295 21.3908 20.3295 21.1134 20.6018 20.8359C20.7417 20.6379 20.8385 20.4116 20.8854 20.1723C20.9324 19.933 20.9285 19.6862 20.8741 19.4486C20.2395 17.6535 19.5123 15.8939 18.6955 14.177C18.4765 13.8301 18.1354 13.5819 17.7423 13.4834H16.2445C15.9722 13.4834 15.6998 13.6221 15.4275 13.6221L15.2913 13.7608C15.019 13.8995 14.7467 14.177 14.4743 14.3157C14.202 14.4544 14.0659 14.8706 13.7935 15.1481C12.8416 16.3736 12.3149 17.8859 12.2957 19.4486C12.3108 20.5479 12.5423 21.6329 12.9765 22.6393L13.1127 23.0555C14.3353 25.7187 16.0453 28.12 18.1508 30.1306L18.6955 30.6855C19.0918 31.02 19.4565 31.3915 19.7848 31.7953C22.6061 34.2966 25.9571 36.1 29.5751 37.067C29.9835 37.2057 30.5282 37.2057 30.9367 37.3444H32.2984C33.0101 37.3087 33.7062 37.1195 34.3408 36.7895C34.6744 36.6355 34.9931 36.4496 35.294 36.2346L35.5663 35.9571C35.8387 35.6797 36.111 35.541 36.3833 35.2635C36.6495 35.0219 36.8789 34.7414 37.0641 34.4312C37.3256 33.8097 37.5094 33.1576 37.6088 32.489V31.5179C37.4865 31.4059 37.3489 31.3124 37.2003 31.2404" fill="white"/>
</svg>
