<svg width="57" height="40" viewBox="0 0 57 40" fill="none" xmlns="http://www.w3.org/2000/svg">
<path d="M37.9996 19.3715C32.7877 16.5889 27.7974 14.0307 22.6963 11.3597V27.338C28.0642 24.4226 33.7221 21.7527 38.0217 19.3715H37.9996Z" fill="white"/>
<path d="M37.9996 19.3715C32.7877 16.5889 22.6963 11.3597 22.6963 11.3597L36.1509 20.3946C36.1519 20.3946 33.7 21.7527 37.9996 19.3715Z" fill="#E8E0E0"/>
<path d="M23.6765 39.8456C12.851 39.6465 9.15358 39.4674 6.88092 38.9996C5.34331 38.6887 4.00714 37.9986 3.02741 36.9977C2.27021 36.2401 1.66804 35.0843 1.20085 33.4806C0.800101 32.1446 0.64402 31.0331 0.4215 28.3179C0.0808646 22.19 -0.000339538 17.18 0.4215 11.582C0.769518 8.49067 0.938253 4.82088 3.24993 2.67991C4.34144 1.67791 5.61118 1.03308 7.037 0.766516C9.26431 0.344011 18.7536 0.0100098 28.5772 0.0100098C38.3786 0.0100098 47.889 0.344011 50.1184 0.766516C51.8996 1.10052 53.5701 2.10146 54.5509 3.39216C56.6601 6.70688 56.697 10.8287 56.9111 14.0528C56.9997 15.589 56.9997 24.312 56.9111 25.8482C56.5778 30.9435 56.31 32.7463 55.5528 34.6154C55.0845 35.7955 54.6848 36.4182 53.993 37.1083C52.908 38.1703 51.5248 38.8767 50.0277 39.1334C40.6597 39.8372 32.7049 39.99 23.6765 39.8456ZM38.0222 19.3715C32.8103 16.5889 27.82 14.0085 22.7189 11.3376V27.3169C28.0868 24.4015 33.7458 21.7306 38.0443 19.3494L38.0222 19.3715Z" fill="#CD201F"/>
</svg>
