<svg viewBox="0 0 102 146" fill="none" xmlns="http://www.w3.org/2000/svg">
<mask id="mask0_55_804" style="mask-type:alpha" maskUnits="userSpaceOnUse" x="0" y="0" width="102" height="146">
<rect width="102" height="146" rx="3" fill="#D9D9D9"/>
</mask>
<g mask="url(#mask0_55_804)">
<ellipse cx="79.3963" cy="82.9948" rx="37.4937" ry="38.3993" fill="#FFC857"/>
<path d="M-20.2687 -29.0195C-12.9641 -21.0073 -5.76481 -12.9053 1.3291 -4.71344C8.35532 3.40752 15.3878 11.5523 22.0674 19.9429C28.137 27.5767 33.4091 35.7031 36.1525 45.0522C38.6853 53.7412 39.2653 62.859 37.853 71.7866C37.158 76.2002 35.9748 80.5281 34.324 84.6948C33.4852 86.8138 32.5168 88.8821 31.424 90.8887C30.367 92.839 29.2311 94.8849 27.511 96.37C25.9915 97.6873 23.8569 98.4083 21.8783 97.7257C21.4297 97.5807 21.0182 97.3443 20.6713 97.0321C20.3245 96.7199 20.0502 96.3391 19.8669 95.9155C19.6836 95.4918 19.5955 95.0349 19.6086 94.5754C19.6216 94.1158 19.7355 93.6644 19.9425 93.251C21.4607 89.8416 25.5044 88.4961 29.0236 88.2951C32.7258 88.1786 36.4274 88.5384 40.0322 89.3652C43.9118 90.1715 47.7262 91.2493 51.4459 92.5902C58.4851 95.0981 64.9672 98.889 70.5447 103.76C82.1805 113.943 88.0421 128.181 92.0648 142.556C92.6216 144.544 93.1417 146.531 93.6497 148.531C93.8568 149.368 95.1808 149.003 94.9737 148.166C91.0913 132.821 85.9108 117.093 74.3575 105.476C68.879 99.9432 62.3114 95.5388 55.0454 92.5254C47.6917 89.5416 39.6393 87.2043 31.6613 86.9289C28.1522 86.8029 24.5179 87.171 21.6345 89.2995C20.0711 90.4508 18.5964 92.0768 18.3094 94.0222C18.1737 94.8737 18.294 95.7453 18.6559 96.5317C19.0177 97.3181 19.6056 97.986 20.3489 98.4549C21.1449 98.9146 22.0351 99.1988 22.9566 99.2873C23.8781 99.3759 24.8084 99.2666 25.6819 98.9672C27.7435 98.3001 29.3346 96.7148 30.5461 95.0191C33.2842 91.2214 35.2107 86.6683 36.7044 82.2962C39.7873 73.2642 40.745 63.6749 39.5067 54.2363C38.2684 44.7978 34.8658 35.7509 29.5501 27.7638C26.5501 23.3421 23.3092 19.0796 19.8412 14.9945C16.2601 10.6591 12.6508 6.35948 9.01308 2.09575C1.6225 -6.60532 -5.90391 -15.2045 -13.5662 -23.7017C-15.4541 -25.8054 -17.3522 -27.9011 -19.2604 -29.9888C-19.8758 -30.6386 -20.8109 -29.6816 -20.2261 -29.0375L-20.2687 -29.0195Z" fill="white"/>
<path d="M25.6469 17.6858L25.6477 17.6841C26.2733 16.1686 27.2858 14.845 28.5839 13.8459C29.8813 12.8473 31.4185 12.208 33.0414 11.9919C33.0423 11.9918 33.0431 11.9917 33.0439 11.9916L52.3193 9.50029C53.9458 9.29059 55.5995 9.51272 57.1148 10.1444C58.6297 10.776 59.953 11.7949 60.9522 13.0989C60.9524 13.0992 60.9526 13.0994 60.9528 13.0997L72.7714 28.5563C73.7687 29.8622 74.4059 31.4074 74.6188 33.0366C74.8318 34.6658 74.6131 36.3218 73.9847 37.8382L73.9847 37.8383L66.5468 55.7914C65.9177 57.3076 64.9015 58.6309 63.6001 59.6289C62.299 60.6266 60.7584 61.264 59.1326 61.4773C59.1322 61.4773 59.1318 61.4774 59.1314 61.4774L39.8753 63.9726L39.874 63.9728C38.248 64.1849 36.5942 63.964 35.0791 63.3324C33.5641 62.7007 32.2413 61.6807 31.2441 60.3749L31.2434 60.3739L19.4225 44.9225C19.4222 44.922 19.4219 44.9216 19.4215 44.9211C18.4255 43.6148 17.7892 42.0699 17.5763 40.4412C17.3634 38.8121 17.5814 37.1564 18.2087 35.6397C18.2088 35.6395 18.2088 35.6394 18.2089 35.6392C18.2089 35.6391 18.209 35.6391 18.209 35.639L25.6469 17.6858Z" stroke="white" stroke-width="3"/>
<rect width="35.904" height="50.2446" transform="matrix(0.992331 0.12361 -0.122848 0.992426 26.1724 104)" fill="#DA5E5C"/>
</g>
</svg>
