<svg width="70" height="24" viewBox="0 0 70 24" fill="none" xmlns="http://www.w3.org/2000/svg">
<g clip-path="url(#clip0_107_1571)">
<path d="M2.40234 6.13914V15.6676C2.40234 16.1625 2.66211 16.6162 3.08593 16.8637L11.2889 21.6211C11.3096 21.6331 11.3305 21.6446 11.3516 21.6555L15.3909 24L15.3772 21.9375L15.3855 20.7922L15.3896 20.8101V20.4251C15.3896 20.197 15.5058 19.9923 15.6847 19.8647L15.9468 19.7127L16.0733 19.6413L16.0667 19.6431L20.8591 16.8637C21.283 16.6162 21.5427 16.1625 21.5427 15.6676V6.13914C21.5427 5.64416 21.283 5.19043 20.8591 4.94294L12.6561 0.185617C12.2323 -0.0618725 11.7128 -0.0618725 11.2889 0.185617L3.08593 4.95668C2.66211 5.20417 2.40234 5.65791 2.40234 6.13914Z" fill="#0F2B46"/>
<path d="M8.66259 6.56574C9.20946 6.02952 10.0844 6.02952 10.6313 6.56574C11.0243 6.94259 11.1546 7.48533 11.0222 7.97218L14.7963 10.1736C14.8028 10.1672 14.8093 10.1608 14.8159 10.1545C15.3628 9.61823 16.2378 9.61823 16.7846 10.1545C17.3726 10.7182 17.3726 11.6531 16.7846 12.2169C16.2378 12.7531 15.3628 12.7531 14.8159 12.2169C14.4032 11.8211 14.2803 11.2424 14.447 10.7376L14.4331 10.7455L10.6863 8.57255C10.6686 8.59146 10.6503 8.61 10.6313 8.62816C10.0844 9.1644 9.20946 9.1644 8.66259 8.62816C8.07471 8.06444 8.07471 7.12948 8.66259 6.56574Z" fill="white"/>
<path d="M11.0294 14.6287L14.7074 12.4916L14.0238 12.1066L10.7043 14.023C10.6813 13.9978 10.6574 13.973 10.6323 13.949C10.0854 13.4128 9.21044 13.4128 8.66357 13.949C8.07569 14.5128 8.07569 15.4478 8.66357 16.0114C9.21044 16.5477 10.0854 16.5477 10.6323 16.0114C11.0189 15.6406 11.1513 15.1094 11.0294 14.6287Z" fill="white"/>
<path d="M30.1963 7.54285H33.9418C34.8558 7.54285 35.6677 7.72195 36.3777 8.08017C37.0877 8.43025 37.6385 8.93096 38.0302 9.58227C38.4218 10.2254 38.6177 10.9704 38.6177 11.8171C38.6177 12.6638 38.4218 13.4128 38.0302 14.0641C37.6385 14.7073 37.0877 15.208 36.3777 15.5662C35.6677 15.9163 34.8558 16.0913 33.9418 16.0913H30.1963V7.54285ZM33.8684 14.748C34.4968 14.748 35.0475 14.63 35.5208 14.3938C36.0023 14.1496 36.3695 13.8077 36.6225 13.368C36.8836 12.9202 37.0142 12.4033 37.0142 11.8171C37.0142 11.2309 36.8836 10.718 36.6225 10.2784C36.3695 9.83058 36.0023 9.48864 35.5208 9.25254C35.0475 9.0083 34.4968 8.88618 33.8684 8.88618H31.7875V14.748H33.8684Z" fill="#0F2B46"/>
<path d="M46.3062 12.8674C46.3062 12.9731 46.2981 13.1238 46.2819 13.3193H41.1531C41.2429 13.7995 41.4755 14.1822 41.8509 14.4672C42.2343 14.744 42.7076 14.8824 43.2707 14.8824C43.9888 14.8824 44.5803 14.6463 45.0456 14.174L45.8656 15.1145C45.5719 15.4645 45.2006 15.7291 44.7517 15.9082C44.3029 16.0873 43.797 16.1769 43.234 16.1769C42.5159 16.1769 41.8834 16.0344 41.3368 15.7494C40.79 15.4645 40.3657 15.0696 40.0637 14.5649C39.7699 14.0519 39.623 13.4739 39.623 12.8308C39.623 12.1957 39.7659 11.6258 40.0515 11.121C40.3452 10.6081 40.7491 10.2092 41.2633 9.92424C41.7774 9.6393 42.3567 9.49683 43.0015 9.49683C43.6379 9.49683 44.2051 9.6393 44.7028 9.92424C45.2088 10.201 45.6004 10.5959 45.8779 11.1088C46.1635 11.6136 46.3062 12.1998 46.3062 12.8674ZM43.0015 10.718C42.5118 10.718 42.0956 10.8646 41.7529 11.1577C41.4183 11.4426 41.2143 11.8253 41.1409 12.3056H44.8497C44.7844 11.8334 44.5845 11.4508 44.2499 11.1577C43.9153 10.8646 43.4992 10.718 43.0015 10.718Z" fill="#0F2B46"/>
<path d="M53.9206 12.8674C53.9206 12.9731 53.9125 13.1238 53.8961 13.3193H48.7675C48.8572 13.7995 49.0897 14.1822 49.4651 14.4672C49.8487 14.744 50.322 14.8824 50.885 14.8824C51.6031 14.8824 52.1947 14.6463 52.6598 14.174L53.4799 15.1145C53.1861 15.4645 52.8149 15.7291 52.3661 15.9082C51.9172 16.0873 51.4114 16.1769 50.8483 16.1769C50.1301 16.1769 49.4978 16.0344 48.951 15.7494C48.4042 15.4645 47.98 15.0696 47.678 14.5649C47.3843 14.0519 47.2373 13.4739 47.2373 12.8308C47.2373 12.1957 47.3802 11.6258 47.6657 11.121C47.9596 10.6081 48.3635 10.2092 48.8775 9.92424C49.3916 9.6393 49.9711 9.49683 50.6157 9.49683C51.2522 9.49683 51.8193 9.6393 52.3171 9.92424C52.823 10.201 53.2148 10.5959 53.4922 11.1088C53.7778 11.6136 53.9206 12.1998 53.9206 12.8674ZM50.6157 10.718C50.1261 10.718 49.7099 10.8646 49.3672 11.1577C49.0327 11.4426 48.8286 11.8253 48.7551 12.3056H52.464C52.3988 11.8334 52.1987 11.4508 51.8642 11.1577C51.5296 10.8646 51.1135 10.718 50.6157 10.718Z" fill="#0F2B46"/>
<path d="M59.0138 9.49683C59.6502 9.49683 60.2174 9.63523 60.7152 9.91203C61.2211 10.1888 61.6169 10.5796 61.9024 11.0844C62.188 11.5892 62.3309 12.1713 62.3309 12.8308C62.3309 13.4902 62.188 14.0764 61.9024 14.5892C61.6169 15.094 61.2211 15.4848 60.7152 15.7617C60.2174 16.0385 59.6502 16.1769 59.0138 16.1769C58.1324 16.1769 57.4347 15.8837 56.9206 15.2976V18.4606H55.3906V9.57009H56.8471V10.4249C57.1002 10.1156 57.4103 9.88354 57.7775 9.72886C58.1528 9.57417 58.5649 9.49683 59.0138 9.49683ZM58.8424 14.8702C59.4054 14.8702 59.8665 14.683 60.2255 14.3084C60.5927 13.9339 60.7763 13.4413 60.7763 12.8308C60.7763 12.2201 60.5927 11.7276 60.2255 11.3531C59.8665 10.9786 59.4054 10.7913 58.8424 10.7913C58.4752 10.7913 58.1446 10.8768 57.8509 11.0478C57.5571 11.2106 57.3246 11.4467 57.1532 11.7561C56.9818 12.0654 56.8961 12.4237 56.8961 12.8308C56.8961 13.2378 56.9818 13.596 57.1532 13.9054C57.3246 14.2148 57.5571 14.455 57.8509 14.6259C58.1446 14.7887 58.4752 14.8702 58.8424 14.8702Z" fill="#0F2B46"/>
<path d="M63.9287 7.54285H65.5199V14.748H69.9999V16.0913H63.9287V7.54285Z" fill="#0F2B46"/>
</g>
<defs>
<clipPath id="clip0_107_1571">
<rect width="70" height="24" fill="white"/>
</clipPath>
</defs>
</svg>
