<svg width="42" height="42" viewBox="0 0 42 42" fill="none" xmlns="http://www.w3.org/2000/svg">
<g clip-path="url(#clip0_59_5495)">
<path fill-rule="evenodd" clip-rule="evenodd" d="M4.19996 27.4182V10.7435C4.19996 9.90133 4.65417 9.1073 5.39526 8.6742L19.7388 0.324831C20.4799 -0.108277 21.3883 -0.108277 22.1294 0.324831L36.4729 8.65013C37.214 9.08324 37.6682 9.87727 37.6682 10.7435V27.4182C37.6682 28.2844 37.214 29.0784 36.4729 29.5115L28.0929 34.3754L28.1045 34.3724L27.8833 34.4971L27.425 34.7632C27.1123 34.9864 26.9092 35.3447 26.9092 35.744V36.4177L26.9019 36.3865L26.8875 38.3908L26.9114 42L19.8484 37.8971C19.8115 37.878 19.7749 37.8579 19.7388 37.8368L5.39526 29.5115C4.65417 29.0784 4.19996 28.2844 4.19996 27.4182ZM18.5895 11.49C17.6332 10.5516 16.1033 10.5516 15.147 11.49C14.1191 12.4765 14.1191 14.1127 15.147 15.0993C16.1033 16.0377 17.6332 16.0377 18.5895 15.0993C18.6226 15.0675 18.6546 15.035 18.6856 15.0019L25.2371 18.8045L25.2614 18.7908C24.9699 19.6742 25.1849 20.6869 25.9065 21.3795C26.8628 22.3179 28.3928 22.3179 29.349 21.3795C30.377 20.393 30.377 18.7568 29.349 17.7703C28.3928 16.8319 26.8628 16.8319 25.9065 17.7703C25.895 17.7814 25.8835 17.7925 25.8722 17.8038L19.2729 13.9513C19.5045 13.0993 19.2767 12.1495 18.5895 11.49ZM25.7164 21.8603L19.2851 25.6003C19.4982 26.4415 19.2668 27.3713 18.5908 28.02C17.6345 28.9584 16.1046 28.9584 15.1483 28.02C14.1204 27.0335 14.1204 25.3973 15.1483 24.4108C16.1046 23.4724 17.6345 23.4724 18.5908 24.4108C18.6346 24.4529 18.6766 24.4961 18.7166 24.5404L24.5211 21.1865L25.7164 21.8603Z" fill="white"/>
</g>
<defs>
<clipPath id="clip0_59_5495">
<rect width="42" height="42" fill="white" transform="matrix(-1 0 0 1 42 0)"/>
</clipPath>
</defs>
</svg>
