<svg width="19" height="19" viewBox="0 0 19 19" fill="none" xmlns="http://www.w3.org/2000/svg">
<g clip-path="url(#clip0)">
<path d="M1.85295 4.86015V12.4035C1.85295 12.7953 2.05334 13.1545 2.38029 13.3504L8.70832 17.1167C8.72427 17.1262 8.7404 17.1353 8.75668 17.1439L11.8727 19L11.8621 17.3672L11.8685 16.4605L11.8717 16.4747V16.1699C11.8717 15.9893 11.9613 15.8272 12.0993 15.7262L12.3015 15.6059L12.3991 15.5494L12.394 15.5508L16.091 13.3504C16.418 13.1545 16.6184 12.7953 16.6184 12.4035V4.86015C16.6184 4.46829 16.418 4.10909 16.091 3.91316L9.76299 0.146947C9.43604 -0.0489825 9.03527 -0.0489825 8.70832 0.146947L2.38029 3.92404C2.05334 4.11997 1.85295 4.47918 1.85295 4.86015Z" fill="#0F2B46"/>
<path d="M6.68257 5.19787C7.10444 4.77336 7.77943 4.77336 8.2013 5.19787C8.50446 5.49621 8.60497 5.92588 8.50281 6.3113L11.4143 8.05411C11.4193 8.04902 11.4243 8.04396 11.4294 8.03894C11.8513 7.61442 12.5263 7.61442 12.9481 8.03894C13.4017 8.48522 13.4017 9.2254 12.9481 9.67168C12.5263 10.0962 11.8513 10.0962 11.4294 9.67168C11.111 9.35838 11.0162 8.90024 11.1448 8.50062L11.1341 8.50683L8.24372 6.78659C8.23005 6.80156 8.21591 6.81624 8.2013 6.83062C7.77943 7.25514 7.10444 7.25514 6.68257 6.83062C6.22906 6.38434 6.22906 5.64416 6.68257 5.19787Z" fill="white"/>
<path d="M8.50819 11.5811L11.3455 9.88917L10.8182 9.58439L8.2574 11.1016C8.23971 11.0816 8.2212 11.062 8.20187 11.043C7.78 10.6185 7.10501 10.6185 6.68314 11.043C6.22963 11.4893 6.22963 12.2295 6.68314 12.6757C7.10501 13.1003 7.78 13.1003 8.20187 12.6757C8.50012 12.3822 8.60222 11.9616 8.50819 11.5811Z" fill="white"/>
</g>
<defs>
<clipPath id="clip0">
<rect width="18.5294" height="19" fill="white" transform="matrix(-1 0 0 1 18.5294 0)"/>
</clipPath>
</defs>
</svg>
