<svg width="120" height="40" viewBox="0 0 120 40" fill="none" xmlns="http://www.w3.org/2000/svg">
<g clip-path="url(#clip0_1094_3711)">
<path fill-rule="evenodd" clip-rule="evenodd" d="M4.11768 26.1125V10.2319C4.11768 9.42984 4.56298 8.67362 5.28953 8.26114L19.3518 0.309363C20.0784 -0.103121 20.969 -0.103121 21.6955 0.309363L35.7578 8.23822C36.4844 8.65071 36.9297 9.40693 36.9297 10.2319V26.1125C36.9297 26.9375 36.4844 27.6937 35.7578 28.1062L27.5422 32.7385L27.5535 32.7357L27.3366 32.8544L26.8873 33.1078C26.5808 33.3204 26.3816 33.6616 26.3816 34.0419V34.6835L26.3745 34.6538L26.3603 36.5626L26.3838 40L19.4593 36.0925C19.4231 36.0743 19.3873 36.0552 19.3518 36.0351L5.28953 28.1062C4.56298 27.6937 4.11768 26.9375 4.11768 26.1125ZM18.2251 10.9429C17.2876 10.0492 15.7876 10.0492 14.8501 10.9429C13.8423 11.8824 13.8423 13.4407 14.8501 14.3802C15.7876 15.274 17.2876 15.274 18.2251 14.3802C18.2575 14.35 18.2889 14.3191 18.3193 14.2875L24.7423 17.9091L24.7662 17.896C24.4803 18.7373 24.6912 19.7018 25.3986 20.3614C26.3361 21.2551 27.8361 21.2551 28.7736 20.3614C29.7814 19.4219 29.7814 17.8636 28.7736 16.9241C27.8361 16.0303 26.3361 16.0303 25.3986 16.9241C25.3873 16.9346 25.3761 16.9453 25.365 16.956L18.8951 13.2869C19.1221 12.4755 18.8988 11.5709 18.2251 10.9429ZM25.2122 20.8193L18.907 24.3813C19.116 25.1824 18.8891 26.0679 18.2263 26.6857C17.2888 27.5795 15.7889 27.5795 14.8514 26.6857C13.8436 25.7462 13.8436 24.1879 14.8514 23.2484C15.7889 22.3547 17.2888 22.3547 18.2263 23.2484C18.2693 23.2884 18.3104 23.3296 18.3497 23.3718L24.0404 20.1777L25.2122 20.8193Z" fill="white"/>
</g>
<path d="M51.7656 12.5703H58.1866C59.7533 12.5703 61.1452 12.8688 62.3623 13.4659C63.5793 14.0493 64.5236 14.8838 65.195 15.9694C65.8665 17.0413 66.2023 18.2829 66.2023 19.6941C66.2023 21.1052 65.8665 22.3536 65.195 23.4391C64.5236 24.5111 63.5793 25.3456 62.3623 25.9426C61.1452 26.5261 59.7533 26.8178 58.1866 26.8178H51.7656V12.5703ZM58.0607 24.5789C59.1378 24.5789 60.0821 24.3822 60.8934 23.9887C61.7188 23.5816 62.3483 23.0117 62.7819 22.279C63.2296 21.5327 63.4534 20.671 63.4534 19.6941C63.4534 18.7171 63.2296 17.8622 62.7819 17.1295C62.3483 16.3832 61.7188 15.8133 60.8934 15.4198C60.0821 15.0127 59.1378 14.8092 58.0607 14.8092H54.4935V24.5789H58.0607Z" fill="white"/>
<path d="M79.3835 21.4445C79.3835 21.6209 79.3695 21.8719 79.3415 22.1975H70.5494C70.7033 22.9981 71.102 23.6359 71.7455 24.1108C72.403 24.5721 73.2143 24.8028 74.1796 24.8028C75.4106 24.8028 76.4248 24.4093 77.2222 23.6223L78.6281 25.1895C78.1245 25.773 77.488 26.214 76.7186 26.5125C75.9492 26.811 75.0819 26.9603 74.1166 26.9603C72.8856 26.9603 71.8014 26.7228 70.8642 26.2479C69.9269 25.773 69.1995 25.1149 68.6819 24.2736C68.1783 23.4188 67.9265 22.4554 67.9265 21.3834C67.9265 20.325 68.1713 19.3752 68.6609 18.5339C69.1645 17.6791 69.857 17.0142 70.7383 16.5393C71.6196 16.0643 72.6128 15.8269 73.7179 15.8269C74.8091 15.8269 75.7813 16.0643 76.6346 16.5393C77.502 17.0006 78.1734 17.6587 78.6491 18.5135C79.1387 19.3548 79.3835 20.3318 79.3835 21.4445ZM73.7179 17.8622C72.8786 17.8622 72.1652 18.1065 71.5776 18.595C71.0041 19.0699 70.6544 19.7076 70.5285 20.5082H76.8864C76.7745 19.7212 76.4318 19.0834 75.8582 18.595C75.2847 18.1065 74.5713 17.8622 73.7179 17.8622Z" fill="white"/>
<path d="M92.4367 21.4445C92.4367 21.6209 92.4227 21.8719 92.3947 22.1975H83.6026C83.7565 22.9981 84.1552 23.6359 84.7987 24.1108C85.4562 24.5721 86.2675 24.8028 87.2328 24.8028C88.4638 24.8028 89.478 24.4093 90.2754 23.6223L91.6813 25.1895C91.1777 25.773 90.5412 26.214 89.7718 26.5125C89.0024 26.811 88.1351 26.9603 87.1698 26.9603C85.9388 26.9603 84.8546 26.7228 83.9174 26.2479C82.9801 25.773 82.2527 25.1149 81.7351 24.2736C81.2315 23.4188 80.9797 22.4554 80.9797 21.3834C80.9797 20.325 81.2245 19.3752 81.7141 18.5339C82.2177 17.6791 82.9102 17.0142 83.7915 16.5393C84.6728 16.0643 85.666 15.8269 86.7711 15.8269C87.8623 15.8269 88.8345 16.0643 89.6878 16.5393C90.5551 17.0006 91.2266 17.6587 91.7022 18.5135C92.1919 19.3548 92.4367 20.3318 92.4367 21.4445ZM86.7711 17.8622C85.9318 17.8622 85.2184 18.1065 84.6308 18.595C84.0573 19.0699 83.7075 19.7076 83.5816 20.5082H89.9396C89.8277 19.7212 89.485 19.0834 88.9114 18.595C88.3379 18.1065 87.6245 17.8622 86.7711 17.8622Z" fill="white"/>
<path d="M101.167 15.8269C102.258 15.8269 103.231 16.0576 104.084 16.5189C104.951 16.9802 105.63 17.6316 106.119 18.4728C106.609 19.3141 106.854 20.2843 106.854 21.3834C106.854 22.4825 106.609 23.4595 106.119 24.3143C105.63 25.1556 104.951 25.8069 104.084 26.2683C103.231 26.7296 102.258 26.9603 101.167 26.9603C99.6565 26.9603 98.4604 26.4718 97.5791 25.4948V30.7664H94.9562V15.949H97.4532V17.3738C97.8868 16.8581 98.4184 16.4714 99.0479 16.2136C99.6914 15.9558 100.398 15.8269 101.167 15.8269ZM100.873 24.7824C101.839 24.7824 102.629 24.4704 103.245 23.8462C103.874 23.222 104.189 22.4011 104.189 21.3834C104.189 20.3657 103.874 19.5448 103.245 18.9206C102.629 18.2964 101.839 17.9844 100.873 17.9844C100.244 17.9844 99.6774 18.1268 99.1738 18.4118C98.6702 18.6832 98.2715 19.0767 97.9778 19.5923C97.684 20.1079 97.5371 20.7049 97.5371 21.3834C97.5371 22.0619 97.684 22.6589 97.9778 23.1745C98.2715 23.6901 98.6702 24.0904 99.1738 24.3754C99.6774 24.6468 100.244 24.7824 100.873 24.7824Z" fill="white"/>
<path d="M109.593 12.5703H112.321V24.5789H120.001V26.8178H109.593V12.5703Z" fill="white"/>
<defs>
<clipPath id="clip0_1094_3711">
<rect width="41.1765" height="40" fill="white" transform="matrix(-1 0 0 1 41.1758 0)"/>
</clipPath>
</defs>
</svg>
