<svg width="16" height="16" viewBox="0 0 16 16" fill="none" xmlns="http://www.w3.org/2000/svg">
<path d="M8.00002 3.33332L8.00002 3.33999M8.00002 7.99999L8.00002 8.00666M8.00002 12.6667L8.00002 12.6733M8.00002 3.99999C7.63183 3.99999 7.33335 3.70151 7.33335 3.33332C7.33335 2.96513 7.63183 2.66666 8.00002 2.66666C8.36821 2.66666 8.66669 2.96513 8.66669 3.33332C8.66669 3.70151 8.36821 3.99999 8.00002 3.99999ZM8.00002 8.66666C7.63183 8.66666 7.33335 8.36818 7.33335 7.99999C7.33335 7.6318 7.63183 7.33332 8.00002 7.33332C8.36821 7.33332 8.66669 7.6318 8.66669 7.99999C8.66669 8.36818 8.36821 8.66666 8.00002 8.66666ZM8.00002 13.3333C7.63183 13.3333 7.33335 13.0348 7.33335 12.6667C7.33335 12.2985 7.63183 12 8.00002 12C8.36821 12 8.66669 12.2985 8.66669 12.6667C8.66669 13.0348 8.36821 13.3333 8.00002 13.3333Z" stroke="#0F2B46" stroke-width="1.5" stroke-linecap="round" stroke-linejoin="round"/>
</svg>
