<svg width="8" height="12" viewBox="0 0 8 12" fill="none" xmlns="http://www.w3.org/2000/svg">
<path d="M3.33268 9.99935C3.33268 10.7327 2.73268 11.3327 1.99935 11.3327C1.26602 11.3327 0.666016 10.7327 0.666016 9.99935C0.666016 9.26602 1.26602 8.66602 1.99935 8.66602C2.73268 8.66602 3.33268 9.26602 3.33268 9.99935ZM1.99935 4.66602C1.26602 4.66602 0.666016 5.26602 0.666016 5.99935C0.666016 6.73268 1.26602 7.33268 1.99935 7.33268C2.73268 7.33268 3.33268 6.73268 3.33268 5.99935C3.33268 5.26602 2.73268 4.66602 1.99935 4.66602ZM1.99935 0.666016C1.26602 0.666016 0.666016 1.26602 0.666016 1.99935C0.666016 2.73268 1.26602 3.33268 1.99935 3.33268C2.73268 3.33268 3.33268 2.73268 3.33268 1.99935C3.33268 1.26602 2.73268 0.666016 1.99935 0.666016ZM5.99935 3.33268C6.73268 3.33268 7.33268 2.73268 7.33268 1.99935C7.33268 1.26602 6.73268 0.666016 5.99935 0.666016C5.26602 0.666016 4.66602 1.26602 4.66602 1.99935C4.66602 2.73268 5.26602 3.33268 5.99935 3.33268ZM5.99935 4.66602C5.26602 4.66602 4.66602 5.26602 4.66602 5.99935C4.66602 6.73268 5.26602 7.33268 5.99935 7.33268C6.73268 7.33268 7.33268 6.73268 7.33268 5.99935C7.33268 5.26602 6.73268 4.66602 5.99935 4.66602ZM5.99935 8.66602C5.26602 8.66602 4.66602 9.26602 4.66602 9.99935C4.66602 10.7327 5.26602 11.3327 5.99935 11.3327C6.73268 11.3327 7.33268 10.7327 7.33268 9.99935C7.33268 9.26602 6.73268 8.66602 5.99935 8.66602Z" fill="#9BA3AC"/>
</svg>
