<svg width="21" height="20" viewBox="0 0 21 20" fill="none" xmlns="http://www.w3.org/2000/svg">
<path d="M0.399994 10C0.399994 4.47715 4.87715 0 10.4 0C15.9228 0 20.4 4.47715 20.4 10C20.4 15.5228 15.9228 20 10.4 20C4.87715 20 0.399994 15.5228 0.399994 10Z" fill="#037171"/>
<path fill-rule="evenodd" clip-rule="evenodd" d="M13.4628 6.86126C13.4628 8.50286 12.132 9.83363 10.4904 9.83363C8.84882 9.83363 7.51805 8.50286 7.51805 6.86126C7.51805 5.21967 8.84882 3.88889 10.4904 3.88889C12.132 3.88889 13.4628 5.21967 13.4628 6.86126ZM14.3517 6.86126C14.3517 8.99378 12.6229 10.7225 10.4904 10.7225C8.3579 10.7225 6.62916 8.99378 6.62916 6.86126C6.62916 4.72875 8.3579 3 10.4904 3C12.6229 3 14.3517 4.72875 14.3517 6.86126ZM4.17777 17.9626C4.17777 15.2758 6.35581 13.0978 9.04256 13.0978H11.9385C14.6252 13.0978 16.8033 15.2758 16.8033 17.9626H17.6922C17.6922 14.7849 15.1162 12.2089 11.9385 12.2089H9.04256C5.86489 12.2089 3.28888 14.7849 3.28888 17.9626H4.17777Z" fill="white"/>
</svg>
