<svg width="129" height="104" viewBox="0 0 129 104" fill="none" xmlns="http://www.w3.org/2000/svg">
<mask id="mask0_434_2967" style="mask-type:alpha" maskUnits="userSpaceOnUse" x="0" y="0" width="129" height="104">
<rect width="129" height="104" fill="#D9D9D9"/>
</mask>
<g mask="url(#mask0_434_2967)">
<path d="M76.4703 27.1979C77.7239 26.4588 79.28 26.4588 80.5336 27.1979L96.8852 36.8394C98.1049 37.5586 98.8535 38.8691 98.8535 40.285V59.715C98.8535 61.1309 98.1049 62.4414 96.8852 63.1606L80.5336 72.8021C79.28 73.5412 77.7239 73.5412 76.4703 72.8021L60.1187 63.1606C58.899 62.4414 58.1504 61.1309 58.1504 59.715V40.285C58.1504 38.8691 58.899 37.5586 60.1187 36.8394L76.4703 27.1979Z" fill="#F3F5F7"/>
<path d="M7.12598 25.5052C7.35803 25.3712 7.64393 25.3712 7.87598 25.5052L11.6391 27.6778C11.8712 27.8118 12.0141 28.0594 12.0141 28.3274V32.6726C12.0141 32.9406 11.8712 33.1882 11.6391 33.3222L7.87598 35.4948C7.64393 35.6288 7.35803 35.6288 7.12598 35.4948L3.36284 33.3222C3.13079 33.1882 2.98784 32.9406 2.98784 32.6726V28.3274C2.98784 28.0594 3.13079 27.8118 3.36284 27.6778L7.12598 25.5052Z" stroke="#FFC857" stroke-width="0.5"/>
<path d="M-2.6343 -2.01358C4.05429 2.64482 10.693 7.3924 17.2818 12.2292C23.8094 17.0254 30.3466 21.8384 36.7041 26.9084C42.4833 31.5225 47.8423 36.669 51.7923 43.2458C55.4521 49.3614 57.9068 56.1892 58.9898 63.2653C59.5273 66.7629 59.7198 70.2917 59.564 73.7901C59.4852 75.5691 59.3085 77.335 59.0348 79.0785C58.7722 80.7721 58.4787 82.5541 57.6684 84.0243C56.9538 85.3273 55.6938 86.2977 54.2195 86.1685C53.8875 86.1467 53.5594 86.0479 53.2573 85.8786C52.9551 85.7094 52.6859 85.4737 52.4675 85.1873C52.2492 84.9009 52.0869 84.5704 51.9913 84.2179C51.8958 83.8655 51.8693 83.4993 51.9137 83.1437C52.1529 80.2481 54.5444 78.4254 56.8457 77.5776C59.2883 76.7581 61.8384 76.3013 64.43 76.2192C67.2001 76.0673 69.9884 76.1349 72.7731 76.4216C78.0363 76.9415 83.219 78.5482 88.0432 81.1555C98.1126 86.612 105.251 96.2958 111.194 106.447C112.016 107.85 112.814 109.261 113.606 110.683C113.934 111.279 114.734 110.74 114.406 110.143C108.337 99.2266 101.315 88.2738 90.9753 81.71C86.0668 78.5786 80.688 76.5217 75.1589 75.6616C69.5781 74.8415 63.6779 74.6515 58.2949 76.0167C55.9262 76.6135 53.586 77.6112 52.1458 79.8011C51.3643 80.9862 50.7496 82.5154 50.9995 84.0532C51.1021 84.7283 51.38 85.3682 51.7997 85.8955C52.2194 86.4229 52.7629 86.8153 53.3649 87.0256C54.0001 87.2185 54.6582 87.2591 55.2928 87.1446C55.9274 87.0301 56.5231 86.7633 57.0377 86.3629C58.2612 85.448 58.9628 83.9269 59.3861 82.3966C60.3508 78.9646 60.6029 75.1176 60.6074 71.4939C60.6149 64.0085 59.0786 56.5182 56.1121 49.5763C53.1456 42.6343 48.8246 36.4179 43.4681 31.3859C40.4646 28.6115 37.3365 26.0059 34.0972 23.5802C30.7257 20.9862 27.3435 18.425 23.9505 15.8967C17.0484 10.7308 10.0788 5.66928 3.04167 0.712168C1.3055 -0.516862 -0.435621 -1.73781 -2.18168 -2.95067C-2.73946 -3.32395 -3.14601 -2.41068 -2.60994 -2.03575L-2.6343 -2.01358Z" fill="#DAE1E8"/>
<path d="M29.001 27.1547C30.2386 26.4402 31.7634 26.4402 33.001 27.1547L49.7856 36.8453C51.0232 37.5598 51.7856 38.8803 51.7856 40.3094V59.6906C51.7856 61.1197 51.0232 62.4402 49.7856 63.1547L33.001 72.8453C31.7634 73.5598 30.2386 73.5598 29.001 72.8453L12.2164 63.1547C10.9788 62.4402 10.2164 61.1197 10.2164 59.6906V40.3094C10.2164 38.8803 10.9788 37.5598 12.2164 36.8453L29.001 27.1547Z" fill="#F3F5F7"/>
<path d="M93.6253 60.9094L97.6991 76.9435C97.8784 78.4198 98.97 78.2084 99.2877 77.5377L101.591 72.6808C102.021 71.7749 102.831 71.1226 103.789 70.9112L108.918 69.786C109.628 69.6303 110.058 68.6775 108.744 68.0537L94.6426 60.0906C94.1047 59.7869 93.474 60.294 93.6281 60.9066L93.6253 60.9094Z" fill="#FFC857"/>
<path fill-rule="evenodd" clip-rule="evenodd" d="M93.5326 61.2452C93.9208 60.9695 94.4649 60.9055 94.9468 61.1714L109.054 68.96C109.527 69.2272 109.903 69.6688 109.984 70.2089C110.071 70.7877 109.797 71.3267 109.264 71.6797L109.169 71.7426L103.929 72.8668C103.154 73.0341 102.496 73.551 102.146 74.2714C102.146 74.2714 102.146 74.2714 102.146 74.2714C102.146 74.2715 102.146 74.2717 102.145 74.2718L99.8427 79.0201C99.8426 79.0202 99.8427 79.02 99.8427 79.0201C99.5904 79.5407 99.0088 79.9395 98.3716 79.8505C97.6637 79.7515 97.2356 79.1276 97.1207 78.2917L93.0554 62.6464L93.0421 62.5939C92.8984 62.0333 93.1375 61.5259 93.5326 61.2452ZM94.206 62.2533C94.2051 62.2556 94.2006 62.2667 94.2079 62.2953L94.2085 62.2974L94.222 62.3508L98.3048 78.0632L98.3097 78.1023C98.3457 78.3927 98.4208 78.5391 98.4698 78.6033C98.5103 78.6562 98.5346 78.6583 98.5379 78.6585C98.5381 78.6585 98.5379 78.6585 98.5379 78.6585C98.5501 78.6602 98.5858 78.6596 98.6366 78.6294C98.6873 78.5993 98.7326 78.5511 98.7596 78.4954L101.063 73.7458C101.574 72.6949 102.536 71.9362 103.676 71.6903L108.678 70.6171C108.734 70.5684 108.763 70.5264 108.777 70.4978C108.795 70.4602 108.8 70.4256 108.794 70.3875C108.781 70.3037 108.701 70.1438 108.464 70.0094L94.3653 62.2251C94.3653 62.2251 94.3654 62.2251 94.3653 62.2251C94.3092 62.1942 94.2608 62.2042 94.2296 62.2264C94.214 62.2374 94.208 62.2482 94.206 62.2533C94.206 62.2532 94.206 62.2533 94.206 62.2533Z" fill="#292C32"/>
<g clip-path="url(#clip0_434_2967)">
<path d="M30.549 46.032V59.9742H19.001L30.549 46.032ZM30.549 41.0281C30.551 44.2184 27.9654 46.8055 24.7748 46.8055C21.5842 46.8055 18.999 44.2176 19.001 41.0273L30.549 41.0281ZM32.4514 59.975C32.4514 56.7859 35.0365 54.2008 38.2256 54.2008C41.4146 54.2008 43.9998 56.7859 43.9998 59.975H32.4514ZM32.4514 54.9711V41.0273H44.001L32.4514 54.9711Z" fill="#03363D"/>
</g>
<path fill-rule="evenodd" clip-rule="evenodd" d="M66.7529 55.1423V43.8737C66.7529 43.3046 67.0607 42.7679 67.5636 42.4753L77.2952 36.8328C77.7981 36.5401 78.4145 36.5401 78.917 36.8328L88.6486 42.459C89.1515 42.7517 89.4597 43.2883 89.4597 43.8737V55.1423C89.4597 55.7276 89.1515 56.2643 88.6486 56.5572L82.9631 59.8442L82.9711 59.8421L82.8209 59.9264L82.5098 60.1059C82.298 60.2571 82.1599 60.4993 82.1599 60.7689V61.2241L82.1553 61.203L82.1453 62.5576L82.1616 64.9968L77.3694 62.224C77.3444 62.2111 77.3198 62.1974 77.2952 62.1833L67.5636 56.5572C67.0607 56.2643 66.7529 55.7276 66.7529 55.1423ZM76.5153 44.3782C75.8668 43.744 74.8288 43.744 74.1799 44.3782C73.4826 45.0449 73.4826 46.1506 74.1799 46.8173C74.8288 47.4515 75.8668 47.4515 76.5153 46.8173C76.5379 46.7958 76.5595 46.7739 76.5808 46.7515L81.0256 49.3213L81.0423 49.312C80.8442 49.909 80.9901 50.5934 81.4797 51.0615C82.1286 51.6956 83.1666 51.6956 83.8156 51.0615C84.5128 50.3948 84.5128 49.289 83.8156 48.6223C83.1666 47.9882 82.1286 47.9882 81.4797 48.6223C81.4718 48.6299 81.4643 48.6374 81.4564 48.645L76.9791 46.0415C77.1363 45.4657 76.9816 44.8239 76.5153 44.3782ZM81.3509 51.3863L76.9874 53.9139C77.1321 54.4823 76.9749 55.1107 76.5162 55.549C75.8677 56.1833 74.8297 56.1833 74.1808 55.549C73.4835 54.8824 73.4835 53.7767 74.1808 53.11C74.8297 52.4758 75.8677 52.4758 76.5162 53.11C76.5462 53.1384 76.5746 53.1676 76.6017 53.1976L80.5397 50.931L81.3509 51.3863Z" fill="#0F2B46"/>
</g>
<defs>
<clipPath id="clip0_434_2967">
<rect width="25" height="25" fill="white" transform="translate(19.001 38)"/>
</clipPath>
</defs>
</svg>
