<svg width="129" height="104" viewBox="0 0 129 104" fill="none" xmlns="http://www.w3.org/2000/svg">
<mask id="mask0_562_2554" style="mask-type:alpha" maskUnits="userSpaceOnUse" x="0" y="0" width="129" height="104">
<rect width="129" height="104" fill="#D9D9D9"/>
</mask>
<g mask="url(#mask0_562_2554)">
<path d="M76.4703 27.1979C77.7239 26.4588 79.28 26.4588 80.5336 27.1979L96.8852 36.8394C98.1049 37.5586 98.8535 38.8691 98.8535 40.285V59.715C98.8535 61.1309 98.1049 62.4414 96.8852 63.1606L80.5336 72.8021C79.28 73.5412 77.7239 73.5412 76.4703 72.8021L60.1187 63.1606C58.899 62.4414 58.1504 61.1309 58.1504 59.715V40.285C58.1504 38.8691 58.899 37.5586 60.1187 36.8394L76.4703 27.1979Z" fill="#F3F5F7"/>
<path d="M-2.63332 -2.01358C4.05527 2.64482 10.694 7.3924 17.2828 12.2292C23.8104 17.0254 30.3475 21.8384 36.7051 26.9084C42.4843 31.5225 47.8433 36.669 51.7933 43.2458C55.4531 49.3614 57.9078 56.1892 58.9907 63.2653C59.5283 66.7629 59.7208 70.2917 59.5649 73.7901C59.4862 75.5691 59.3095 77.335 59.0358 79.0785C58.7732 80.7721 58.4797 82.5541 57.6694 84.0243C56.9548 85.3273 55.6948 86.2977 54.2205 86.1685C53.8885 86.1467 53.5604 86.0479 53.2583 85.8786C52.9561 85.7094 52.6868 85.4737 52.4685 85.1873C52.2502 84.9009 52.0878 84.5704 51.9923 84.2179C51.8968 83.8655 51.8703 83.4993 51.9146 83.1437C52.1539 80.2481 54.5454 78.4254 56.8467 77.5776C59.2892 76.7581 61.8394 76.3013 64.431 76.2192C67.2011 76.0673 69.9894 76.1349 72.7741 76.4216C78.0373 76.9415 83.2199 78.5482 88.0442 81.1555C98.1136 86.612 105.252 96.2958 111.195 106.447C112.017 107.85 112.815 109.261 113.607 110.683C113.935 111.279 114.735 110.74 114.407 110.143C108.338 99.2266 101.316 88.2738 90.9763 81.71C86.0678 78.5786 80.6889 76.5217 75.1599 75.6616C69.579 74.8415 63.6789 74.6515 58.2959 76.0167C55.9272 76.6135 53.587 77.6112 52.1468 79.8011C51.3653 80.9862 50.7506 82.5154 51.0005 84.0532C51.1031 84.7283 51.381 85.3682 51.8007 85.8955C52.2203 86.4229 52.7639 86.8153 53.3659 87.0256C54.0011 87.2185 54.6592 87.2591 55.2938 87.1446C55.9284 87.0301 56.524 86.7633 57.0386 86.3629C58.2622 85.448 58.9637 83.9269 59.3871 82.3966C60.3518 78.9646 60.6039 75.1176 60.6084 71.4939C60.6159 64.0085 59.0796 56.5182 56.1131 49.5763C53.1466 42.6343 48.8256 36.4179 43.4691 31.3859C40.4655 28.6115 37.3375 26.0059 34.0982 23.5802C30.7267 20.9862 27.3445 18.425 23.9515 15.8967C17.0494 10.7308 10.0798 5.66928 3.04265 0.712168C1.30648 -0.516862 -0.434645 -1.73781 -2.1807 -2.95067C-2.73849 -3.32395 -3.14503 -2.41068 -2.60896 -2.03575L-2.63332 -2.01358Z" fill="#DAE1E8"/>
<path d="M93.6262 60.9094L97.7001 76.9435C97.8794 78.4198 98.971 78.2084 99.2887 77.5377L101.592 72.6808C102.022 71.7749 102.832 71.1226 103.79 70.9112L108.919 69.786C109.629 69.6303 110.059 68.6775 108.745 68.0537L94.6436 60.0906C94.1056 59.7869 93.475 60.294 93.6291 60.9066L93.6262 60.9094Z" fill="#FFC857"/>
<path fill-rule="evenodd" clip-rule="evenodd" d="M93.5326 61.2452C93.9208 60.9695 94.4649 60.9055 94.9468 61.1714L109.054 68.96C109.527 69.2272 109.903 69.6688 109.984 70.2089C110.071 70.7877 109.797 71.3267 109.264 71.6797L109.169 71.7426L103.929 72.8668C103.154 73.0341 102.496 73.551 102.146 74.2714C102.146 74.2714 102.146 74.2714 102.146 74.2714C102.146 74.2715 102.146 74.2717 102.145 74.2718L99.8427 79.0201C99.8426 79.0202 99.8427 79.02 99.8427 79.0201C99.5904 79.5407 99.0088 79.9395 98.3716 79.8505C97.6637 79.7515 97.2356 79.1276 97.1207 78.2917L93.0554 62.6464L93.0421 62.5939C92.8984 62.0333 93.1375 61.5259 93.5326 61.2452ZM94.206 62.2533C94.2051 62.2556 94.2006 62.2667 94.2079 62.2953L94.2085 62.2974L94.222 62.3508L98.3048 78.0632L98.3097 78.1023C98.3457 78.3927 98.4208 78.5391 98.4698 78.6033C98.5103 78.6562 98.5346 78.6583 98.5379 78.6585C98.5381 78.6585 98.5379 78.6585 98.5379 78.6585C98.5501 78.6602 98.5858 78.6596 98.6366 78.6294C98.6873 78.5993 98.7326 78.5511 98.7596 78.4954L101.063 73.7458C101.574 72.6949 102.536 71.9362 103.676 71.6903L108.678 70.6171C108.734 70.5684 108.763 70.5264 108.777 70.4978C108.795 70.4602 108.8 70.4256 108.794 70.3875C108.781 70.3037 108.701 70.1438 108.464 70.0094L94.3653 62.2251C94.3653 62.2251 94.3654 62.2251 94.3653 62.2251C94.3092 62.1942 94.2608 62.2042 94.2296 62.2264C94.214 62.2374 94.208 62.2482 94.206 62.2533C94.206 62.2532 94.206 62.2533 94.206 62.2533Z" fill="#292C32"/>
<path fill-rule="evenodd" clip-rule="evenodd" d="M66.752 55.1423V43.8737C66.752 43.3046 67.0597 42.7679 67.5627 42.4753L77.2942 36.8328C77.7972 36.5401 78.4135 36.5401 78.9161 36.8328L88.6476 42.459C89.1506 42.7517 89.4587 43.2883 89.4587 43.8737V55.1423C89.4587 55.7276 89.1506 56.2643 88.6476 56.5572L82.9622 59.8442L82.9701 59.8421L82.8199 59.9264L82.5088 60.1059C82.297 60.2571 82.1589 60.4993 82.1589 60.7689V61.2241L82.1544 61.203L82.1443 62.5576L82.1606 64.9968L77.3684 62.224C77.3434 62.2111 77.3188 62.1974 77.2942 62.1833L67.5627 56.5572C67.0597 56.2643 66.752 55.7276 66.752 55.1423ZM76.5144 44.3782C75.8659 43.744 74.8279 43.744 74.179 44.3782C73.4817 45.0449 73.4817 46.1506 74.179 46.8173C74.8279 47.4515 75.8659 47.4515 76.5144 46.8173C76.5369 46.7958 76.5586 46.7739 76.5798 46.7515L81.0246 49.3213L81.0413 49.312C80.8432 49.909 80.9892 50.5934 81.4788 51.0615C82.1277 51.6956 83.1657 51.6956 83.8146 51.0615C84.5119 50.3948 84.5119 49.289 83.8146 48.6223C83.1657 47.9882 82.1277 47.9882 81.4788 48.6223C81.4708 48.6299 81.4633 48.6374 81.4554 48.645L76.9781 46.0415C77.1353 45.4657 76.9806 44.8239 76.5144 44.3782ZM81.3499 51.3863L76.9864 53.9139C77.1312 54.4823 76.9739 55.1107 76.5152 55.549C75.8667 56.1833 74.8287 56.1833 74.1798 55.549C73.4825 54.8824 73.4825 53.7767 74.1798 53.11C74.8287 52.4758 75.8667 52.4758 76.5152 53.11C76.5452 53.1384 76.5736 53.1676 76.6007 53.1976L80.5388 50.931L81.3499 51.3863Z" fill="#9BA3AC"/>
</g>
</svg>
