<svg width="488" height="304" viewBox="0 0 488 304" fill="none" xmlns="http://www.w3.org/2000/svg">
<g filter="url(#filter0_d_2456_12978)">
<rect x="16" y="12" width="456" height="272" rx="4" fill="white"/>
<rect x="16.5" y="12.5" width="455" height="271" rx="3.5" stroke="#DAE1E8"/>
</g>
<line x1="17" y1="201.5" x2="471" y2="201.5" stroke="#DAE1E8"/>
<mask id="path-4-inside-1_2456_12978" fill="white">
<path fill-rule="evenodd" clip-rule="evenodd" d="M36.9048 27H48H48.852H301C304.866 27 308 30.134 308 34V78C308 81.866 304.866 85 301 85H48C44.134 85 41 81.866 41 78V39.6757L36.2222 29.3333C35.8809 28.75 35.8124 27 36.9048 27Z"/>
</mask>
<path fill-rule="evenodd" clip-rule="evenodd" d="M36.9048 27H48H48.852H301C304.866 27 308 30.134 308 34V78C308 81.866 304.866 85 301 85H48C44.134 85 41 81.866 41 78V39.6757L36.2222 29.3333C35.8809 28.75 35.8124 27 36.9048 27Z" fill="white"/>
<path d="M41 39.6757H42V39.4559L41.9078 39.2563L41 39.6757ZM36.2222 29.3333L37.1301 28.914L37.1098 28.87L37.0853 28.8283L36.2222 29.3333ZM48 26H36.9048V28H48V26ZM48 28H48.852V26H48V28ZM48.852 28H301V26H48.852V28ZM301 28C304.314 28 307 30.6863 307 34H309C309 29.5817 305.418 26 301 26V28ZM307 34V78H309V34H307ZM307 78C307 81.3137 304.314 84 301 84V86C305.418 86 309 82.4183 309 78H307ZM301 84H48V86H301V84ZM48 84C44.6863 84 42 81.3137 42 78H40C40 82.4183 43.5817 86 48 86V84ZM42 78V39.6757H40V78H42ZM35.3144 29.7527L40.0922 40.095L41.9078 39.2563L37.1301 28.914L35.3144 29.7527ZM36.9048 26C36.3239 26 35.8423 26.2502 35.5157 26.6489C35.2191 27.0109 35.0907 27.4422 35.037 27.7992C34.9817 28.1671 34.9924 28.5422 35.0426 28.8727C35.0907 29.1894 35.1869 29.544 35.3592 29.8384L37.0853 28.8283C37.0869 28.831 37.0466 28.7481 37.0199 28.5726C36.9954 28.4109 36.9933 28.2392 37.0148 28.0966C37.0378 27.9433 37.0757 27.9006 37.0629 27.9162C37.0513 27.9304 37.0242 27.9569 36.9808 27.9778C36.9604 27.9875 36.9416 27.9935 36.9264 27.9968C36.9115 28.0001 36.9035 28 36.9048 28V26Z" fill="#DAE1E8" mask="url(#path-4-inside-1_2456_12978)"/>
<mask id="path-6-inside-2_2456_12978" fill="white">
<path d="M41 100C41 96.134 44.134 93 48 93H281C284.866 93 288 96.134 288 100V122C288 125.866 284.866 129 281 129H48C44.134 129 41 125.866 41 122V100Z"/>
</mask>
<path d="M41 100C41 96.134 44.134 93 48 93H281C284.866 93 288 96.134 288 100V122C288 125.866 284.866 129 281 129H48C44.134 129 41 125.866 41 122V100Z" fill="white"/>
<path d="M42 100C42 96.6863 44.6863 94 48 94V92C43.5817 92 40 95.5817 40 100H42ZM48 94H281V92H48V94ZM281 94C284.314 94 287 96.6863 287 100H289C289 95.5817 285.418 92 281 92V94ZM287 100V122H289V100H287ZM287 122C287 125.314 284.314 128 281 128V130C285.418 130 289 126.418 289 122H287ZM281 128H48V130H281V128ZM48 128C44.6863 128 42 125.314 42 122H40C40 126.418 43.5817 130 48 130V128ZM42 122V100H40V122H42Z" fill="#DAE1E8" mask="url(#path-6-inside-2_2456_12978)"/>
<mask id="path-8-inside-3_2456_12978" fill="white">
<path fill-rule="evenodd" clip-rule="evenodd" d="M454.765 140H441.988H439.75H323C319.134 140 316 143.134 316 147V164C316 167.866 319.134 171 323 171H441.988C445.854 171 448.988 167.866 448.988 164V153.688L449.188 153.417L455.623 142.333C456.052 141.75 456.138 140 454.765 140Z"/>
</mask>
<path fill-rule="evenodd" clip-rule="evenodd" d="M454.765 140H441.988H439.75H323C319.134 140 316 143.134 316 147V164C316 167.866 319.134 171 323 171H441.988C445.854 171 448.988 167.866 448.988 164V153.688L449.188 153.417L455.623 142.333C456.052 141.75 456.138 140 454.765 140Z" fill="white"/>
<path d="M448.988 153.688H447.988V153.36L448.183 153.096L448.988 153.688ZM449.188 153.417L450.053 153.919L450.026 153.966L449.994 154.009L449.188 153.417ZM455.623 142.333L454.758 141.831L454.785 141.784L454.817 141.741L455.623 142.333ZM441.988 139H454.765V141H441.988V139ZM441.988 141H439.75V139H441.988V141ZM439.75 141H323V139H439.75V141ZM323 141C319.686 141 317 143.686 317 147H315C315 142.582 318.582 139 323 139V141ZM317 147V164H315V147H317ZM317 164C317 167.314 319.686 170 323 170V172C318.582 172 315 168.418 315 164H317ZM323 170H441.988V172H323V170ZM441.988 170C445.302 170 447.988 167.314 447.988 164H449.988C449.988 168.418 446.407 172 441.988 172V170ZM447.988 164V153.688H449.988V164H447.988ZM449.994 154.009L449.794 154.281L448.183 153.096L448.382 152.824L449.994 154.009ZM456.488 142.835L450.053 153.919L448.323 152.915L454.758 141.831L456.488 142.835ZM454.765 139C455.339 139 455.85 139.191 456.236 139.565C456.602 139.921 456.778 140.369 456.852 140.762C456.927 141.158 456.912 141.559 456.845 141.91C456.781 142.249 456.652 142.622 456.429 142.926L454.817 141.741C454.809 141.753 454.852 141.689 454.881 141.535C454.908 141.394 454.909 141.248 454.887 141.134C454.865 141.017 454.832 140.99 454.842 141C454.871 141.028 454.878 141 454.765 141V139Z" fill="#DAE1E8" mask="url(#path-8-inside-3_2456_12978)"/>
<path d="M17 202H471V280C471 281.657 469.657 283 468 283H20C18.3432 283 17 281.657 17 280V202Z" fill="#F2F4F7"/>
<rect x="30.5" y="218.5" width="423" height="48" rx="24" fill="white" stroke="#DAE1E8"/>
<g filter="url(#filter1_d_2456_12978)">
<rect x="376" y="222" width="74" height="41" rx="20.5" fill="white"/>
<rect x="376.5" y="222.5" width="73" height="40" rx="20" stroke="#DAE1E8"/>
</g>
<circle cx="429.5" cy="242.5" r="16.5" fill="#DAE1E8"/>
<g clip-path="url(#clip0_2456_12978)">
<path fill-rule="evenodd" clip-rule="evenodd" d="M419.5 246.32V236.395C419.5 235.894 419.77 235.421 420.211 235.163L428.749 230.193C429.19 229.936 429.731 229.936 430.172 230.193L438.71 235.149C439.151 235.407 439.421 235.879 439.421 236.395V246.32C439.421 246.836 439.151 247.309 438.71 247.566L433.722 250.462L433.729 250.46L433.597 250.534L433.324 250.692C433.138 250.825 433.017 251.039 433.017 251.276V251.677L433.013 251.659L433.004 252.852L433.019 255L428.814 252.558C428.792 252.546 428.771 252.534 428.749 252.522L420.211 247.566C419.77 247.309 419.5 246.836 419.5 246.32ZM428.065 236.839C427.496 236.281 426.585 236.281 426.016 236.839C425.404 237.427 425.404 238.4 426.016 238.988C426.585 239.546 427.496 239.546 428.065 238.988C428.085 238.969 428.104 238.949 428.122 238.93L432.022 241.193L432.036 241.185C431.863 241.711 431.991 242.314 432.42 242.726C432.99 243.284 433.9 243.284 434.469 242.726C435.081 242.139 435.081 241.165 434.469 240.578C433.9 240.019 432.99 240.019 432.42 240.578L432.4 240.598L428.472 238.304C428.61 237.797 428.474 237.232 428.065 236.839ZM432.307 243.012L428.479 245.238C428.606 245.739 428.468 246.292 428.066 246.679C427.497 247.237 426.586 247.237 426.017 246.679C425.405 246.091 425.405 245.117 426.017 244.53C426.586 243.972 427.497 243.972 428.066 244.53C428.092 244.555 428.117 244.581 428.141 244.607L431.596 242.611L432.307 243.012Z" fill="#0F2B46"/>
</g>
<path d="M394.755 234.497C395.199 232.668 397.801 232.668 398.245 234.497C398.532 235.679 399.886 236.24 400.925 235.607C402.533 234.627 404.373 236.467 403.393 238.075C402.76 239.114 403.321 240.468 404.503 240.755C406.332 241.199 406.332 243.801 404.503 244.245C403.321 244.532 402.76 245.886 403.393 246.925C404.373 248.533 402.533 250.373 400.925 249.393C399.886 248.76 398.532 249.321 398.245 250.503C397.801 252.332 395.199 252.332 394.755 250.503C394.468 249.321 393.114 248.76 392.075 249.393C390.467 250.373 388.627 248.533 389.607 246.925C390.24 245.886 389.679 244.532 388.497 244.245C386.668 243.801 386.668 241.199 388.497 240.755C389.679 240.468 390.24 239.114 389.607 238.075C388.627 236.467 390.467 234.627 392.075 235.607C393.114 236.24 394.468 235.679 394.755 234.497Z" stroke="#0F2B46" stroke-width="1.5" stroke-linecap="round" stroke-linejoin="round"/>
<path d="M399.625 242.5C399.625 244.226 398.226 245.625 396.5 245.625C394.774 245.625 393.375 244.226 393.375 242.5C393.375 240.774 394.774 239.375 396.5 239.375C398.226 239.375 399.625 240.774 399.625 242.5Z" stroke="#0F2B46" stroke-width="1.5" stroke-linecap="round" stroke-linejoin="round"/>
<path d="M466.652 271.405L464.421 271.9C458.892 273.188 454.624 277.546 453.363 283.193L452.878 285.471C452.49 287.353 449.968 287.551 449.192 285.768L437.455 257.339C437.067 256.25 438.037 255.259 439.007 255.655L466.943 267.641C468.786 268.433 468.495 271.009 466.652 271.405Z" fill="#FFC857"/>
<path d="M465.294 267.839L463.063 268.334C457.534 269.622 453.266 273.98 452.005 279.627L451.52 281.905C451.132 283.787 448.61 283.985 447.834 282.202L436.097 253.674C435.709 252.684 436.679 251.693 437.649 252.089L465.585 264.075C467.428 264.867 467.137 267.443 465.294 267.839Z" stroke="#0F2B46" stroke-width="1.5" stroke-miterlimit="10"/>
<rect x="54" y="238" width="191" height="8" rx="4" fill="#9BA3AC"/>
<rect x="253" y="238" width="78" height="8" rx="4" fill="#9BA3AC"/>
<rect x="57" y="43" width="35" height="8" rx="4" fill="#DAE1E8"/>
<rect x="100" y="43" width="191" height="8" rx="4" fill="#DAE1E8"/>
<rect x="57" y="61" width="191" height="8" rx="4" fill="#DAE1E8"/>
<rect x="142" y="107" width="24" height="8" rx="4" fill="#DAE1E8"/>
<rect x="57" y="107" width="77" height="8" rx="4" fill="#DAE1E8"/>
<rect x="174" y="107" width="86" height="8" rx="4" fill="#DAE1E8"/>
<rect x="364" y="152" width="61" height="8" rx="4" fill="#DAE1E8"/>
<rect x="332" y="152" width="24" height="8" rx="4" fill="#DAE1E8"/>
<defs>
<filter id="filter0_d_2456_12978" x="0" y="0" width="488" height="304" filterUnits="userSpaceOnUse" color-interpolation-filters="sRGB">
<feFlood flood-opacity="0" result="BackgroundImageFix"/>
<feColorMatrix in="SourceAlpha" type="matrix" values="0 0 0 0 0 0 0 0 0 0 0 0 0 0 0 0 0 0 127 0" result="hardAlpha"/>
<feOffset dy="4"/>
<feGaussianBlur stdDeviation="8"/>
<feComposite in2="hardAlpha" operator="out"/>
<feColorMatrix type="matrix" values="0 0 0 0 0 0 0 0 0 0 0 0 0 0 0 0 0 0 0.12 0"/>
<feBlend mode="normal" in2="BackgroundImageFix" result="effect1_dropShadow_2456_12978"/>
<feBlend mode="normal" in="SourceGraphic" in2="effect1_dropShadow_2456_12978" result="shape"/>
</filter>
<filter id="filter1_d_2456_12978" x="360" y="210" width="106" height="73" filterUnits="userSpaceOnUse" color-interpolation-filters="sRGB">
<feFlood flood-opacity="0" result="BackgroundImageFix"/>
<feColorMatrix in="SourceAlpha" type="matrix" values="0 0 0 0 0 0 0 0 0 0 0 0 0 0 0 0 0 0 127 0" result="hardAlpha"/>
<feOffset dy="4"/>
<feGaussianBlur stdDeviation="8"/>
<feComposite in2="hardAlpha" operator="out"/>
<feColorMatrix type="matrix" values="0 0 0 0 0 0 0 0 0 0 0 0 0 0 0 0 0 0 0.37 0"/>
<feBlend mode="normal" in2="BackgroundImageFix" result="effect1_dropShadow_2456_12978"/>
<feBlend mode="normal" in="SourceGraphic" in2="effect1_dropShadow_2456_12978" result="shape"/>
</filter>
<clipPath id="clip0_2456_12978">
<rect width="25" height="25" fill="white" transform="matrix(-1 0 0 1 442 230)"/>
</clipPath>
</defs>
</svg>
