<svg width="10" height="10" viewBox="0 0 10 10" fill="none" xmlns="http://www.w3.org/2000/svg">
<path d="M9.72504 0.2825C9.43254 -0.00999986 8.96004 -0.00999986 8.66754 0.2825L5.00004 3.9425L1.33254 0.275C1.04004 -0.0175 0.567539 -0.0175 0.275039 0.275C-0.0174609 0.5675 -0.0174609 1.04 0.275039 1.3325L3.94254 5L0.275039 8.6675C-0.0174609 8.96 -0.0174609 9.4325 0.275039 9.725C0.567539 10.0175 1.04004 10.0175 1.33254 9.725L5.00004 6.0575L8.66754 9.725C8.96004 10.0175 9.43254 10.0175 9.72504 9.725C10.0175 9.4325 10.0175 8.96 9.72504 8.6675L6.05754 5L9.72504 1.3325C10.01 1.0475 10.01 0.5675 9.72504 0.2825Z" fill="#4B535A"/>
</svg>
