<svg width="24" height="24" viewBox="0 0 24 24" fill="none" xmlns="http://www.w3.org/2000/svg">
<path fill-rule="evenodd" clip-rule="evenodd" d="M9.5 4.75C9.5 3.50736 10.5074 2.5 11.75 2.5H18.75C19.9926 2.5 21 3.50736 21 4.75V14.75C21 15.9926 19.9926 17 18.75 17H16.5V8.75C16.5 6.67893 14.8211 5 12.75 5H9.5V4.75ZM8 5V4.75C8 2.67893 9.67893 1 11.75 1H18.75C20.8211 1 22.5 2.67893 22.5 4.75V14.75C22.5 16.8211 20.8211 18.5 18.75 18.5H16.5V18.75C16.5 20.8211 14.8211 22.5 12.75 22.5H5.75C3.67893 22.5 2 20.8211 2 18.75V8.75C2 6.67893 3.67893 5 5.75 5H8ZM8 6.5H5.75C4.50736 6.5 3.5 7.50736 3.5 8.75V18.75C3.5 19.9926 4.50736 21 5.75 21H12.75C13.9926 21 15 19.9926 15 18.75V18.5V8.75C15 7.50736 13.9926 6.5 12.75 6.5H8Z" fill="#0F2B46"/>
</svg>
