<svg width="14" height="14" viewBox="0 0 14 14" fill="none" xmlns="http://www.w3.org/2000/svg">
<path fill-rule="evenodd" clip-rule="evenodd" d="M5.478 13.8H8.758L9.045 11.8C9.537 11.64 9.947 11.4 10.357 11.08L12.284 11.8L13.924 9.00001L12.325 7.72001C12.366 7.48001 12.366 7.24001 12.366 7.00001C12.366 6.76001 12.366 6.52001 12.325 6.28001L13.924 5.00001L12.284 2.20001L10.357 2.92001C9.947 2.64001 9.496 2.40001 9.045 2.20001L8.717 0.200012H5.437L5.109 2.20001C4.617 2.36001 4.207 2.60001 3.797 2.92001L1.87 2.20001L0.23 5.00001L1.829 6.28001C1.788 6.52001 1.788 6.76001 1.788 7.00001C1.788 7.24001 1.788 7.48001 1.829 7.72001L0.23 9.00001L1.87 11.8L3.838 11.08C4.248 11.36 4.699 11.6 5.15 11.8L5.478 13.8ZM8.061 13H6.134L5.847 11.16L5.601 11.08C5.068 10.92 4.576 10.64 4.166 10.28L3.961 10.12L2.239 10.76L1.296 9.16001L2.731 8.00001L2.69 7.76001C2.649 7.48001 2.608 7.20001 2.608 6.96001C2.608 6.72001 2.649 6.44001 2.69 6.16001L2.731 5.96001L1.296 4.80001L2.239 3.20001L3.961 3.84001L4.166 3.64001C4.576 3.28001 5.068 3.04001 5.601 2.84001L5.847 2.76001L6.134 1.00001H8.061L8.348 2.84001L8.594 2.92001C9.127 3.08001 9.619 3.36001 10.029 3.72001L10.193 3.88001L11.915 3.24001L12.858 4.84001L11.423 6.00001L11.464 6.24001L11.464 6.24003C11.505 6.52003 11.546 6.80002 11.546 7.04001C11.546 7.28001 11.505 7.56 11.464 7.83999L11.464 7.84001L11.423 8.08001L12.858 9.24001L11.915 10.84L10.193 10.2L10.029 10.36C9.619 10.72 9.127 10.96 8.594 11.16L8.348 11.24L8.061 13ZM4.49416 6.99999C4.49416 8.39999 5.64216 9.51999 7.07716 9.51999C8.51216 9.51999 9.66016 8.39999 9.66016 6.99999C9.66016 5.59999 8.51216 4.47999 7.07716 4.47999C5.64216 4.47999 4.49416 5.59999 4.49416 6.99999ZM5.31416 6.99999C5.31416 6.03999 6.09316 5.27999 7.07716 5.27999C8.06116 5.27999 8.84016 6.03999 8.84016 6.99999C8.84016 7.95999 8.06116 8.71999 7.07716 8.71999C6.09316 8.71999 5.31416 7.95999 5.31416 6.99999Z" fill="#727A83"/>
</svg>
