<svg width="18" height="18" viewBox="0 0 18 18" fill="none" xmlns="http://www.w3.org/2000/svg">
<path fill-rule="evenodd" clip-rule="evenodd" d="M7.11001 16.2439H10.71L11.025 14.0488C11.565 13.8732 12.015 13.6098 12.465 13.2585L14.58 14.0488L16.38 10.9756L14.625 9.57073C14.67 9.30732 14.67 9.0439 14.67 8.78049C14.67 8.51707 14.67 8.25366 14.625 7.99024L16.38 6.58537L14.58 3.5122L12.465 4.30244C12.015 3.99512 11.52 3.73171 11.025 3.5122L10.665 1.31707H7.06501L6.70501 3.5122C6.16501 3.68781 5.71501 3.95122 5.26501 4.30244L3.15001 3.5122L1.35001 6.58537L3.10501 7.99024C3.06001 8.25366 3.06001 8.51707 3.06001 8.78049C3.06001 9.0439 3.06001 9.30732 3.10501 9.57073L1.35001 10.9756L3.15001 14.0488L5.31001 13.2585C5.76001 13.5659 6.25501 13.8293 6.75001 14.0488L7.11001 16.2439ZM9.94501 15.3659H7.83001L7.51501 13.3463L7.24501 13.2585C6.66001 13.0829 6.12001 12.7756 5.67001 12.3805L5.44501 12.2049L3.55501 12.9073L2.52001 11.1512L4.09501 9.87805L4.05001 9.61463C4.00501 9.30732 3.96001 9 3.96001 8.73659C3.96001 8.47317 4.00501 8.16585 4.05001 7.85854L4.09501 7.63902L2.52001 6.36585L3.55501 4.60976L5.44501 5.3122L5.67001 5.09268C6.12001 4.69756 6.66001 4.43415 7.24501 4.21463L7.51501 4.12683L7.83001 2.19512H9.94501L10.26 4.21463L10.53 4.30244C11.115 4.47805 11.655 4.78537 12.105 5.18049L12.285 5.3561L14.175 4.65366L15.21 6.40976L13.635 7.68293L13.68 7.94634C13.725 8.25366 13.77 8.56098 13.77 8.82439C13.77 9.08781 13.725 9.39512 13.68 9.70244L13.635 9.96585L15.21 11.239L14.175 12.9951L12.285 12.2927L12.105 12.4683C11.655 12.8634 11.115 13.1268 10.53 13.3463L10.26 13.4341L9.94501 15.3659ZM6.03018 8.78047C6.03018 10.3171 7.29018 11.5463 8.86518 11.5463C10.4402 11.5463 11.7002 10.3171 11.7002 8.78047C11.7002 7.24388 10.4402 6.01461 8.86518 6.01461C7.29018 6.01461 6.03018 7.24388 6.03018 8.78047ZM6.93018 8.78047C6.93018 7.72681 7.78518 6.89266 8.86518 6.89266C9.94518 6.89266 10.8002 7.72681 10.8002 8.78047C10.8002 9.83413 9.94518 10.6683 8.86518 10.6683C7.78518 10.6683 6.93018 9.83413 6.93018 8.78047Z" fill="#0F2B46"/>
</svg>
