<svg width="321" height="77" viewBox="0 0 321 77" fill="none" xmlns="http://www.w3.org/2000/svg">
<rect opacity="0.4" width="218" height="24" rx="1" fill="#BBD6FB"/>
<rect opacity="0.4" y="28" width="272" height="24" rx="1" fill="#BBD6FB"/>
<g filter="url(#filter0_d_1595_10282)">
<rect x="245" y="23" width="60" height="34" rx="17" fill="white"/>
<rect x="245.5" y="23.5" width="59" height="33" rx="16.5" stroke="#DAE1E8"/>
</g>
<circle cx="288" cy="40" r="13" fill="#F2F4F7"/>
<g clip-path="url(#clip0_1595_10282)">
<path fill-rule="evenodd" clip-rule="evenodd" d="M280 43.0563V35.1159C280 34.7149 280.216 34.3368 280.569 34.1306L287.399 30.1547C287.752 29.9484 288.185 29.9484 288.538 30.1547L295.368 34.1191C295.721 34.3254 295.937 34.7035 295.937 35.1159V43.0563C295.937 43.4688 295.721 43.8469 295.368 44.0531L291.378 46.3693L291.383 46.3678L291.278 46.4272L291.06 46.5539C290.911 46.6602 290.814 46.8308 290.814 47.0209V47.3418L290.81 47.3269L290.804 48.2813L290.815 50L287.452 48.0462C287.434 48.0372 287.417 48.0276 287.399 48.0175L280.569 44.0531C280.216 43.8469 280 43.4688 280 43.0563ZM286.852 35.4714C286.397 35.0246 285.668 35.0246 285.213 35.4714C284.723 35.9412 284.723 36.7203 285.213 37.1901C285.668 37.637 286.397 37.637 286.852 37.1901C286.868 37.175 286.883 37.1595 286.898 37.1438L290.018 38.9545L290.029 38.948C289.89 39.3687 289.993 39.8509 290.336 40.1807C290.792 40.6276 291.52 40.6276 291.976 40.1807C292.465 39.7109 292.465 38.9318 291.976 38.462C291.52 38.0152 290.792 38.0152 290.336 38.462L290.32 38.478L287.178 36.6435C287.288 36.2378 287.179 35.7855 286.852 35.4714ZM290.246 40.4096L287.183 42.1906C287.285 42.5912 287.175 43.0339 286.853 43.3429C286.397 43.7897 285.669 43.7897 285.214 43.3429C284.724 42.8731 284.724 42.094 285.214 41.6242C285.669 41.1773 286.397 41.1773 286.853 41.6242C286.874 41.6442 286.894 41.6648 286.913 41.6859L289.677 40.0888L290.246 40.4096Z" fill="#0F2B46"/>
</g>
<path d="M260.604 33.5978C260.959 32.1341 263.041 32.1341 263.396 33.5978C263.626 34.5433 264.709 34.992 265.54 34.4857C266.826 33.702 268.298 35.1739 267.514 36.4602C267.008 37.291 267.457 38.3743 268.402 38.6039C269.866 38.9592 269.866 41.0408 268.402 41.3961C267.457 41.6257 267.008 42.709 267.514 43.5398C268.298 44.8261 266.826 46.298 265.54 45.5143C264.709 45.008 263.626 45.4567 263.396 46.4022C263.041 47.8659 260.959 47.8659 260.604 46.4022C260.374 45.4567 259.291 45.008 258.46 45.5143C257.174 46.298 255.702 44.8261 256.486 43.5398C256.992 42.709 256.543 41.6257 255.598 41.3961C254.134 41.0408 254.134 38.9592 255.598 38.6039C256.543 38.3743 256.992 37.291 256.486 36.4602C255.702 35.1739 257.174 33.702 258.46 34.4857C259.291 34.992 260.374 34.5433 260.604 33.5978Z" stroke="#0F2B46" stroke-linecap="round" stroke-linejoin="round"/>
<path d="M264.5 40C264.5 41.3807 263.381 42.5 262 42.5C260.619 42.5 259.5 41.3807 259.5 40C259.5 38.6193 260.619 37.5 262 37.5C263.381 37.5 264.5 38.6193 264.5 40Z" stroke="#0F2B46" stroke-linecap="round" stroke-linejoin="round"/>
<path fill-rule="evenodd" clip-rule="evenodd" d="M261 5C259.895 5 259 5.89543 259 7V19C259 20.1046 259.895 21 261 21H281.65L287.619 26.3941C287.999 26.7382 288.579 26.7382 288.96 26.3941L294.929 21H315C316.105 21 317 20.1046 317 19V7C317 5.89543 316.105 5 315 5H261Z" fill="#5E5E5E"/>
<rect x="268" y="11" width="40" height="4" rx="2" fill="white"/>
<rect x="8" y="8" width="91" height="8" rx="4" fill="#9BA3AC"/>
<rect x="8" y="36" width="50" height="8" rx="4" fill="#9BA3AC"/>
<rect x="107" y="8" width="32" height="8" rx="4" fill="#9BA3AC"/>
<rect x="66" y="36" width="61" height="8" rx="4" fill="#9BA3AC"/>
<rect x="147" y="8" width="63" height="8" rx="4" fill="#9BA3AC"/>
<rect x="135" y="36" width="20" height="8" rx="4" fill="#9BA3AC"/>
<rect x="163" y="36" width="74" height="8" rx="4" fill="#9BA3AC"/>
<defs>
<filter id="filter0_d_1595_10282" x="229" y="11" width="92" height="66" filterUnits="userSpaceOnUse" color-interpolation-filters="sRGB">
<feFlood flood-opacity="0" result="BackgroundImageFix"/>
<feColorMatrix in="SourceAlpha" type="matrix" values="0 0 0 0 0 0 0 0 0 0 0 0 0 0 0 0 0 0 127 0" result="hardAlpha"/>
<feOffset dy="4"/>
<feGaussianBlur stdDeviation="8"/>
<feComposite in2="hardAlpha" operator="out"/>
<feColorMatrix type="matrix" values="0 0 0 0 0 0 0 0 0 0 0 0 0 0 0 0 0 0 0.12 0"/>
<feBlend mode="normal" in2="BackgroundImageFix" result="effect1_dropShadow_1595_10282"/>
<feBlend mode="normal" in="SourceGraphic" in2="effect1_dropShadow_1595_10282" result="shape"/>
</filter>
<clipPath id="clip0_1595_10282">
<rect width="20" height="20" fill="white" transform="matrix(-1 0 0 1 298 30)"/>
</clipPath>
</defs>
</svg>
