<svg width="322" height="78" viewBox="0 0 322 78" fill="none" xmlns="http://www.w3.org/2000/svg">
<rect x="0.5" y="16.5" width="315" height="47" rx="3.5" fill="white" stroke="#DAE1E8"/>
<rect x="179" y="39" width="1" height="18" fill="#0F2B46"/>
<rect x="1" width="110" height="8" rx="4" fill="#C6CDD5"/>
<rect x="16" y="28" width="88" height="8" rx="4" fill="#9BA3AC"/>
<rect x="16" y="44" width="53" height="8" rx="4" fill="#9BA3AC"/>
<rect x="115" width="16" height="8" rx="4" fill="#C6CDD5"/>
<rect x="112" y="28" width="38" height="8" rx="4" fill="#9BA3AC"/>
<rect x="77" y="44" width="100" height="8" rx="4" fill="#9BA3AC"/>
<rect x="158" y="28" width="71" height="8" rx="4" fill="#9BA3AC"/>
<g filter="url(#filter0_d_1297_7825)">
<rect x="246" y="24" width="60" height="34" rx="17" fill="white"/>
<rect x="246.5" y="24.5" width="59" height="33" rx="16.5" stroke="#DAE1E8"/>
</g>
<circle cx="289" cy="41" r="13" fill="#F2F4F7"/>
<g clip-path="url(#clip0_1297_7825)">
<path fill-rule="evenodd" clip-rule="evenodd" d="M281 44.0563V36.1159C281 35.7149 281.217 35.3368 281.569 35.1306L288.4 31.1547C288.753 30.9484 289.185 30.9484 289.538 31.1547L296.368 35.1191C296.721 35.3254 296.938 35.7035 296.938 36.1159V44.0563C296.938 44.4688 296.721 44.8469 296.368 45.0531L292.378 47.3693L292.383 47.3678L292.278 47.4272L292.06 47.5539C291.911 47.6602 291.814 47.8308 291.814 48.0209V48.3418L291.811 48.3269L291.804 49.2813L291.815 51L288.452 49.0462C288.434 49.0372 288.417 49.0276 288.4 49.0175L281.569 45.0531C281.217 44.8469 281 44.4688 281 44.0563ZM287.852 36.4714C287.397 36.0246 286.668 36.0246 286.213 36.4714C285.724 36.9412 285.724 37.7203 286.213 38.1901C286.668 38.637 287.397 38.637 287.852 38.1901C287.868 38.175 287.883 38.1595 287.898 38.1438L291.018 39.9545L291.03 39.948C290.891 40.3687 290.993 40.8509 291.337 41.1807C291.792 41.6276 292.521 41.6276 292.976 41.1807C293.465 40.7109 293.465 39.9318 292.976 39.462C292.521 39.0152 291.792 39.0152 291.337 39.462L291.32 39.478L288.178 37.6435C288.288 37.2378 288.18 36.7855 287.852 36.4714ZM291.246 41.4096L288.184 43.1906C288.285 43.5912 288.175 44.0339 287.853 44.3429C287.398 44.7897 286.669 44.7897 286.214 44.3429C285.724 43.8731 285.724 43.094 286.214 42.6242C286.669 42.1773 287.398 42.1773 287.853 42.6242C287.874 42.6442 287.894 42.6648 287.913 42.6859L290.677 41.0888L291.246 41.4096Z" fill="#0F2B46"/>
</g>
<path d="M261.604 34.5978C261.959 33.1341 264.041 33.1341 264.396 34.5978C264.626 35.5433 265.709 35.992 266.54 35.4857C267.826 34.702 269.298 36.1739 268.514 37.4602C268.008 38.291 268.457 39.3743 269.402 39.6039C270.866 39.9592 270.866 42.0408 269.402 42.3961C268.457 42.6257 268.008 43.709 268.514 44.5398C269.298 45.8261 267.826 47.298 266.54 46.5143C265.709 46.008 264.626 46.4567 264.396 47.4022C264.041 48.8659 261.959 48.8659 261.604 47.4022C261.374 46.4567 260.291 46.008 259.46 46.5143C258.174 47.298 256.702 45.8261 257.486 44.5398C257.992 43.709 257.543 42.6257 256.598 42.3961C255.134 42.0408 255.134 39.9592 256.598 39.6039C257.543 39.3743 257.992 38.291 257.486 37.4602C256.702 36.1739 258.174 34.702 259.46 35.4857C260.291 35.992 261.374 35.5433 261.604 34.5978Z" stroke="#0F2B46" stroke-linecap="round" stroke-linejoin="round"/>
<path d="M265.5 41C265.5 42.3807 264.381 43.5 263 43.5C261.619 43.5 260.5 42.3807 260.5 41C260.5 39.6193 261.619 38.5 263 38.5C264.381 38.5 265.5 39.6193 265.5 41Z" stroke="#0F2B46" stroke-linecap="round" stroke-linejoin="round"/>
<path fill-rule="evenodd" clip-rule="evenodd" d="M262 6C260.895 6 260 6.89543 260 8V20C260 21.1046 260.895 22 262 22H282.65L288.619 27.3941C288.999 27.7382 289.579 27.7382 289.96 27.3941L295.929 22H316C317.105 22 318 21.1046 318 20V8C318 6.89543 317.105 6 316 6H262Z" fill="#5E5E5E"/>
<rect x="269" y="12" width="40" height="4" rx="2" fill="white"/>
<defs>
<filter id="filter0_d_1297_7825" x="230" y="12" width="92" height="66" filterUnits="userSpaceOnUse" color-interpolation-filters="sRGB">
<feFlood flood-opacity="0" result="BackgroundImageFix"/>
<feColorMatrix in="SourceAlpha" type="matrix" values="0 0 0 0 0 0 0 0 0 0 0 0 0 0 0 0 0 0 127 0" result="hardAlpha"/>
<feOffset dy="4"/>
<feGaussianBlur stdDeviation="8"/>
<feComposite in2="hardAlpha" operator="out"/>
<feColorMatrix type="matrix" values="0 0 0 0 0 0 0 0 0 0 0 0 0 0 0 0 0 0 0.12 0"/>
<feBlend mode="normal" in2="BackgroundImageFix" result="effect1_dropShadow_1297_7825"/>
<feBlend mode="normal" in="SourceGraphic" in2="effect1_dropShadow_1297_7825" result="shape"/>
</filter>
<clipPath id="clip0_1297_7825">
<rect width="20" height="20" fill="white" transform="matrix(-1 0 0 1 299 31)"/>
</clipPath>
</defs>
</svg>
