<svg width="336" height="48" viewBox="0 0 336 48" fill="none" xmlns="http://www.w3.org/2000/svg">
<rect x="0.5" y="0.5" width="335" height="47" rx="3.5" fill="white" stroke="#DAE1E8"/>
<path d="M1 38H335V44C335 45.6569 333.657 47 332 47H4.00001C2.34315 47 1 45.6569 1 44V38Z" fill="#F2F4F7"/>
<g clip-path="url(#clip0_1551_9449)">
<path fill-rule="evenodd" clip-rule="evenodd" d="M16.0002 22.0563V14.1159C16.0002 13.7149 16.2165 13.3368 16.5694 13.1306L23.3997 9.15468C23.7526 8.94844 24.1852 8.94844 24.5381 9.15468L31.3683 13.1191C31.7212 13.3254 31.9375 13.7035 31.9375 14.1159V22.0563C31.9375 22.4688 31.7212 22.8469 31.3683 23.0531L27.3778 25.3693L27.3833 25.3678L27.278 25.4272L27.0598 25.5539C26.9109 25.6602 26.8142 25.8308 26.8142 26.0209V26.3418L26.8107 26.3269L26.8038 27.2813L26.8152 29L23.4519 27.0462C23.4343 27.0372 23.4169 27.0276 23.3997 27.0175L16.5694 23.0531C16.2165 22.8469 16.0002 22.4688 16.0002 22.0563ZM22.8524 14.4714C22.397 14.0246 21.6685 14.0246 21.2131 14.4714C20.7236 14.9412 20.7236 15.7203 21.2131 16.1901C21.6685 16.637 22.397 16.637 22.8524 16.1901C22.8682 16.175 22.8834 16.1595 22.8982 16.1438L26.0179 17.9545L26.0295 17.948C25.8907 18.3687 25.9931 18.8509 26.3367 19.1807C26.7921 19.6276 27.5206 19.6276 27.976 19.1807C28.4655 18.7109 28.4655 17.9318 27.976 17.462C27.5206 17.0152 26.7921 17.0152 26.3367 17.462L26.3204 17.478L23.1778 15.6435C23.2881 15.2378 23.1796 14.7855 22.8524 14.4714ZM26.2462 19.4096L23.1836 21.1906C23.2851 21.5912 23.1749 22.0339 22.853 22.3429C22.3977 22.7897 21.6691 22.7897 21.2137 22.3429C20.7242 21.8731 20.7242 21.094 21.2137 20.6242C21.6691 20.1773 22.3977 20.1773 22.853 20.6242C22.8739 20.6442 22.8939 20.6648 22.9129 20.6859L25.677 19.0888L26.2462 19.4096Z" fill="#0F2B46"/>
</g>
<rect x="226" y="9" width="94" height="20" rx="2" fill="#0F2B46"/>
<rect x="107.5" y="9.5" width="106" height="19" rx="1.5" fill="white" stroke="#DAE1E8"/>
<rect x="244" y="17" width="62" height="4" rx="2" fill="white"/>
<rect x="47" y="17" width="48" height="4" rx="2" fill="#727A83"/>
<rect x="118" y="17" width="67" height="4" rx="2" fill="#9BA3AC"/>
<path d="M204.916 17.75L202 20.6667L199.083 17.75" stroke="#9BA3AC" stroke-width="1.5" stroke-linecap="round" stroke-linejoin="round"/>
<line x1="1" y1="37.5" x2="335" y2="37.5" stroke="#DAE1E8"/>
<defs>
<clipPath id="clip0_1551_9449">
<rect width="20" height="20" fill="white" transform="matrix(-1 0 0 1 34 9)"/>
</clipPath>
</defs>
</svg>
